<svg width="146" height="31" viewBox="0 0 146 31" fill="none" xmlns="http://www.w3.org/2000/svg">
<path d="M112.727 2.23255C111.011 3.46934 109.424 4.5937 109.215 4.75432L108.814 5.04344L109.985 5.39681C110.626 5.58956 111.188 5.7823 111.236 5.83049C111.268 5.87868 111.043 6.34448 110.707 6.85848C109.007 9.50875 105.704 15.0181 104.309 17.5078C103.443 19.0497 102.577 20.5917 102.368 20.913C102.16 21.2503 101.984 21.5554 101.984 21.6036C101.984 21.6518 101.663 22.2301 101.262 22.8726C100.861 23.5311 100.54 24.1093 100.54 24.1575C100.54 24.2057 103.603 24.2539 107.355 24.2539H114.186L114.138 22.1979L114.09 20.158L110.691 20.1098C108.814 20.0938 107.275 20.0295 107.275 19.9813C107.275 19.8689 108.462 17.7648 112.567 10.601C113.304 9.316 114.074 7.96677 114.298 7.58128C114.571 7.09941 114.78 6.90666 114.956 6.95485C116.175 7.30822 116.736 7.43672 116.784 7.37247C116.832 7.32428 116.335 1.99161 116.094 0.0320168C116.078 -0.128607 115.485 0.272949 112.727 2.23255Z" fill="#1E40BA"/>
<path d="M41.6914 2.29675C39.1097 3.01956 37.3619 4.15998 35.4377 6.42476C34.8764 7.08331 34.1709 8.43254 33.7219 9.66933C33.4012 10.5849 33.289 11.2595 33.2409 12.7212C33.1286 15.0823 33.4172 16.4958 34.4435 18.5196C35.0368 19.7082 35.4377 20.2544 36.4639 21.2823C37.9873 22.7761 39.0777 23.4668 41.0179 24.1414C42.2526 24.5751 42.6375 24.6233 44.3372 24.6394C46.6462 24.6554 47.5442 24.4627 49.4684 23.515C52.4991 22.0533 54.6638 19.3709 55.5618 15.9818C55.8664 14.8574 55.9146 12.0144 55.658 10.874C55.1769 8.80197 54.0545 6.81025 52.483 5.25221C50.3023 3.09987 47.9611 2.08795 44.8984 1.99157C43.327 1.92732 42.8459 1.97551 41.6914 2.29675ZM46.9349 6.64963C49.2439 7.4688 51.0719 9.73358 51.4728 12.2393C52.0501 15.9497 49.5486 19.4673 45.7483 20.2544C44.9626 20.415 44.4975 20.415 43.5194 20.2704C41.1302 19.901 39.254 18.5357 38.2118 16.4315C37.6666 15.3232 37.6024 15.0663 37.5543 13.6206C37.4902 12.2714 37.5383 11.8859 37.8429 11.0346C38.2919 9.79783 38.7409 9.10715 39.6068 8.23979C40.3605 7.50093 41.8036 6.66569 42.7497 6.42476C43.5996 6.21595 46.101 6.34444 46.9349 6.64963Z" fill="#1E40BA"/>
<path d="M61.6872 2.18436C61.6231 2.24861 61.575 7.24397 61.575 13.2834V24.2539H67.5561C74.0022 24.2539 74.4993 24.2057 75.8943 23.3865C76.8404 22.8244 78.1072 21.443 78.5562 20.4953C79.6466 18.1502 79.2778 15.4839 77.6261 13.8295L76.9687 13.1709L77.5941 12.6088C78.3156 11.9502 79.0212 10.4564 79.1655 9.33207C79.2617 8.43258 78.9891 6.77817 78.6203 6.02324C78.1232 5.02738 77.129 3.88696 76.2952 3.34084C74.5634 2.20042 74.5153 2.20042 67.8287 2.12011C64.5254 2.08799 61.7513 2.12011 61.6872 2.18436ZM74.0663 7.13154C75.3652 8.36833 74.82 10.4564 73.1042 10.9222C72.7675 11.0186 71.1159 11.0668 69.2397 11.0507L65.9846 11.0025L65.9365 8.78595L65.8884 6.56936L69.7368 6.61755L73.5853 6.66573L74.0663 7.13154ZM73.6013 15.7088C75.0765 16.4476 75.1567 18.7606 73.7136 19.5477C73.2646 19.8047 72.7354 19.8368 69.5925 19.8368H65.9846L65.9365 17.8451C65.9205 16.7368 65.9365 15.7409 65.9686 15.6285C66.0327 15.4678 66.8184 15.4197 69.5444 15.4197C72.559 15.4197 73.1203 15.4518 73.6013 15.7088Z" fill="#F8F8FF"/>
<path d="M0 13.2513V24.2539H2.16474H4.32949V19.8368V15.4197H7.61669H10.9039V13.2513V11.0829H7.61669H4.32949V8.83414V6.58542H9.86161H15.3937V4.41702V2.24861H7.69687H0V13.2513Z" fill="#1E40BA"/>
<path d="M88.3216 7.24392C84.2326 7.83822 81.2982 11.4362 81.2982 15.8372C81.2982 18.5517 82.0679 20.5595 83.7356 22.23C86.7181 25.1855 91.24 25.3461 94.6715 22.6155L95.4572 21.9891L96.275 23.1295C96.9966 24.1254 97.1409 24.2539 97.606 24.2539H98.1351L98.103 16.0139L98.0549 7.79004L97.5097 7.82216C97.157 7.83822 96.8844 7.98278 96.724 8.22371C96.5797 8.43253 96.243 8.83408 95.9543 9.13926L95.4572 9.68538L94.5914 9.02683C93.4849 8.19159 92.3464 7.62941 91.1598 7.30817C90.1336 7.05117 89.7167 7.03511 88.3216 7.24392ZM91.6249 11.9502C93.1322 12.8336 93.9018 14.3595 93.7736 16.1906C93.6773 17.4916 93.2765 18.3269 92.3464 19.2103C91.1117 20.3507 89.9572 20.6238 88.3376 20.1419C85.8843 19.403 84.7458 16.1745 86.0286 13.5403C86.7662 12.0626 88.033 11.3559 89.8289 11.4522C90.6146 11.5004 91.0797 11.6289 91.6249 11.9502Z" fill="#F8F8FF"/>
<path d="M122.38 7.25998C119.237 7.70973 116.543 10.2476 115.694 13.5725C115.389 14.8092 115.389 17.1704 115.71 18.3911C116.287 20.6559 117.778 22.5994 119.638 23.5471C122.877 25.1694 126.068 24.8321 128.874 22.5513L129.532 22.0051L129.949 22.5352C130.189 22.8083 130.43 23.1295 130.494 23.2098C130.574 23.3062 130.767 23.5792 130.927 23.8202C131.151 24.1735 131.312 24.2539 131.713 24.2217L132.21 24.1735L132.258 16.0139C132.29 9.55689 132.258 7.87035 132.098 7.85429C131.472 7.79004 131.071 7.95066 130.702 8.4004C130.478 8.67346 130.141 9.07502 129.949 9.29989L129.612 9.68538L128.746 9.02683C127.592 8.15947 125.972 7.4206 124.818 7.22786C123.759 7.05117 123.775 7.05117 122.38 7.25998ZM125.331 11.7092C128.105 12.9621 128.842 16.6725 126.79 18.9212C125.812 19.9652 125.058 20.3186 123.711 20.3025C122.893 20.3025 122.412 20.2062 121.931 19.9492C120.6 19.2585 119.622 17.6041 119.622 16.046C119.622 14.5041 120.376 12.7212 121.29 12.1108C122.428 11.3719 124.192 11.1952 125.331 11.7092Z" fill="#F8F8FF"/>
<path d="M22.4974 7.56515C21.407 7.69364 20.3807 8.0952 19.1781 8.86619C18.4405 9.34806 18.3924 9.36412 18.1839 9.09106C17.5425 8.20764 16.9492 7.69364 16.6285 7.74183L16.2757 7.79002L16.1955 15.7569C16.1474 20.1419 16.1314 23.8362 16.1635 23.9808C16.2116 24.2217 16.4842 24.2538 18.1999 24.2538H20.1883L20.2364 19.146C20.2845 13.4118 20.3166 13.2833 21.5352 12.3035C22.0644 11.8698 22.3049 11.8056 23.2991 11.7574C24.6942 11.6931 25.3356 11.9823 26.0572 12.9942L26.5382 13.6849L26.6184 18.9212L26.6986 24.1735L28.7511 24.2217L30.7875 24.2699V19.0818C30.7875 16.1745 30.7074 13.5885 30.6111 13.1869C29.7773 9.52474 26.2817 7.09934 22.4974 7.56515Z" fill="#1E40BA"/>
<path d="M135.128 7.80608C135.064 7.87032 135.016 13.0745 135.016 19.387V30.8394H137.1H139.169L139.217 22.5191C139.265 14.5522 139.281 14.1989 139.586 13.6688C140.404 12.2874 141.606 11.8538 144.477 11.902L146 11.9341V9.87811V7.8382H143.803C142.601 7.8382 141.302 7.88639 140.917 7.95064C140.195 8.07913 138.64 8.80194 137.854 9.38018C137.437 9.68536 137.389 9.70142 137.245 9.44443C136.78 8.60919 136.01 7.79001 135.641 7.74183C135.417 7.7097 135.192 7.74183 135.128 7.80608Z" fill="#F8F8FF"/>
<path d="M100.54 9.87808V11.8859H103.33H106.105L107.323 9.87808L108.542 7.8703H104.549H100.54V9.87808Z" fill="#1E40BA"/>
<path d="M122.38 27.402C121.787 27.643 121.226 28.4782 121.226 29.1207C121.226 29.9559 122.124 30.8394 122.99 30.8394C123.455 30.8394 124.272 30.3896 124.272 30.1326C124.272 29.7311 123.904 29.5544 123.567 29.8114C123.134 30.1166 122.733 30.1005 122.348 29.715C121.915 29.2813 121.947 28.8155 122.412 28.3497C122.813 27.9481 123.294 27.9481 123.647 28.3658C123.791 28.5425 123.887 28.5425 124.048 28.414C124.785 27.8036 123.406 26.9684 122.38 27.402Z" fill="#1E40BA"/>
<path d="M125.908 27.3378C124.529 27.7072 124.336 29.972 125.635 30.5985C126.966 31.2249 128.121 30.4539 128.121 28.944C128.121 27.7876 127.078 27.0326 125.908 27.3378ZM127.127 28.3016C127.399 28.5746 127.367 29.3938 127.046 29.7472C126.726 30.1005 126.373 30.1166 125.908 29.7793C125.507 29.5062 125.411 28.6389 125.748 28.3016C126.004 28.0446 126.87 28.0446 127.127 28.3016Z" fill="#1E40BA"/>
<path d="M129.404 27.4663C129.275 27.5466 129.035 27.5787 128.874 27.5305C128.618 27.4502 128.602 27.5627 128.634 29.1046C128.682 30.743 128.682 30.7591 129.083 30.7591C129.516 30.7591 129.5 30.7912 129.548 29.1528C129.564 28.5103 129.628 28.2373 129.821 28.157C130.334 27.9642 130.478 28.3658 130.51 30.0844C130.526 30.7912 130.558 30.8554 130.895 30.8072C131.216 30.7591 131.248 30.6627 131.296 29.5062C131.328 28.5585 131.408 28.2373 131.584 28.157C131.985 28.0124 132.114 28.2855 132.162 29.5544C132.21 30.7109 132.226 30.7591 132.611 30.7591C132.995 30.7591 133.012 30.6948 133.06 29.7953C133.14 28.43 132.883 27.7233 132.274 27.4502C131.889 27.3057 131.665 27.2896 131.28 27.4342C130.975 27.5466 130.702 27.5627 130.51 27.4663C130.157 27.2575 129.708 27.2736 129.404 27.4663Z" fill="#1E40BA"/>
<path d="M119.847 30.2772C119.718 30.6145 119.879 31 120.151 31C120.488 31 120.761 30.5984 120.648 30.2933C120.52 29.972 119.959 29.956 119.847 30.2772Z" fill="#1E40BA"/>
</svg>
