<svg width="112" height="73" viewBox="0 0 112 73" fill="none" xmlns="http://www.w3.org/2000/svg">
<path d="M0.646447 68.3805C0.451184 68.5758 0.451184 68.8923 0.646447 69.0876L3.82843 72.2696C4.02369 72.4648 4.34027 72.4648 4.53553 72.2696C4.7308 72.0743 4.7308 71.7577 4.53553 71.5625L1.70711 68.734L4.53553 65.9056C4.7308 65.7104 4.7308 65.3938 4.53553 65.1985C4.34027 65.0033 4.02369 65.0033 3.82843 65.1985L0.646447 68.3805ZM1 69.234C1.34312 69.234 1.68537 69.2335 2.02675 69.2324L2.02358 68.2324C1.68326 68.2335 1.34206 68.234 1 68.234V69.234ZM4.06467 69.2195C4.74051 69.213 5.4129 69.2044 6.08184 69.1937L6.06585 68.1939C5.39907 68.2045 4.72883 68.2131 4.05512 68.2195L4.06467 69.2195ZM8.07831 69.1553C8.74035 69.1404 9.39896 69.1235 10.0541 69.1044L10.0251 68.1048C9.3721 68.1238 8.71568 68.1408 8.05581 68.1556L8.07831 69.1553ZM12.087 69.0383C12.7672 69.0139 13.4437 68.9871 14.1165 68.9582L14.0735 67.9591C13.4031 67.988 12.7289 68.0146 12.051 68.039L12.087 69.0383ZM16.1234 68.8647C16.7886 68.8314 17.45 68.7958 18.1077 68.7581L18.0504 67.7597C17.3951 67.7973 16.7361 67.8327 16.0733 67.866L16.1234 68.8647ZM20.1019 68.6364C20.785 68.5921 21.4639 68.5455 22.1388 68.4966L22.0664 67.4992C21.3942 67.548 20.7178 67.5944 20.0373 67.6385L20.1019 68.6364ZM24.1509 68.3428C24.8174 68.2893 25.4799 68.2334 26.1383 68.1753L26.0504 67.1792C25.3946 67.2371 24.7348 67.2927 24.0708 67.3461L24.1509 68.3428ZM28.108 67.9935C28.7919 67.9276 29.4712 67.8592 30.1459 67.7884L30.0416 66.7938C29.3696 66.8644 28.6931 66.9324 28.0121 66.9981L28.108 67.9935ZM32.1568 67.5687C32.8225 67.493 33.4838 67.415 34.1406 67.3345L34.019 66.3419C33.3652 66.422 32.7068 66.4997 32.0439 66.5751L32.1568 67.5687ZM36.0994 67.0859C36.7815 66.9963 37.4585 66.9041 38.1307 66.8094L37.9911 65.8192C37.3221 65.9135 36.6481 66.0052 35.9692 66.0945L36.0994 67.0859ZM40.1322 66.5175C40.7944 66.4178 41.4517 66.3155 42.1041 66.2107L41.9456 65.2234C41.2964 65.3276 40.6423 65.4294 39.9832 65.5287L40.1322 66.5175ZM44.0645 65.8861C44.7416 65.7705 45.4132 65.6523 46.0794 65.5314L45.9009 64.5475C45.2381 64.6677 44.5699 64.7854 43.8962 64.9004L44.0645 65.8861ZM48.0618 65.1609C48.7171 65.0348 49.3671 64.9061 50.0116 64.7749L49.8121 63.795C49.1711 63.9255 48.5247 64.0535 47.8728 64.1789L48.0618 65.1609ZM51.9838 64.3619C52.6521 64.2181 53.3144 64.0714 53.9708 63.9221L53.7489 62.947C53.0964 63.0955 52.4379 63.2413 51.7734 63.3843L51.9838 64.3619ZM55.9218 63.466C56.5686 63.3107 57.2093 63.1528 57.8441 62.9923L57.5989 62.0228C56.9681 62.1823 56.3312 62.3393 55.6884 62.4936L55.9218 63.466ZM59.8281 62.4769C60.4829 62.3022 61.131 62.1248 61.7726 61.9445L61.5022 60.9818C60.8649 61.1608 60.221 61.3371 59.5704 61.5106L59.8281 62.4769ZM63.6776 61.3957C64.3345 61.2017 64.9842 61.0047 65.6268 60.8048L65.3298 59.8499C64.6918 60.0484 64.0466 60.244 63.3943 60.4367L63.6776 61.3957ZM67.5548 60.1897C68.1902 59.9818 68.8183 59.7711 69.4392 59.5576L69.114 58.6119C68.4979 58.8238 67.8745 59.033 67.2438 59.2393L67.5548 60.1897ZM71.3536 58.8823C71.9948 58.6503 72.6279 58.4154 73.253 58.1775L72.8973 57.2429C72.2774 57.4788 71.6495 57.7118 71.0134 57.9419L71.3536 58.8823ZM75.104 57.4553C75.7407 57.2006 76.3686 56.9429 76.9878 56.6822L76.5998 55.7605C75.9862 56.0189 75.3638 56.2744 74.7326 56.5268L75.104 57.4553ZM78.8433 55.8806C79.453 55.6104 80.0537 55.3372 80.6456 55.0612L80.2229 54.1549C79.637 54.4282 79.042 54.6987 78.4381 54.9664L78.8433 55.8806ZM82.4982 54.174C83.1057 53.8752 83.7033 53.5733 84.291 53.2686L83.8306 52.3808C83.2493 52.6823 82.6581 52.9809 82.0568 53.2767L82.4982 54.174ZM86.0661 52.3228C86.6683 51.9931 87.2595 51.6603 87.8395 51.3246L87.3386 50.4591C86.7655 50.7908 86.1813 51.1197 85.5859 51.4456L86.0661 52.3228ZM89.5465 50.3087C90.1373 49.947 90.7158 49.5823 91.282 49.2145L90.7373 48.3759C90.1787 48.7387 89.6078 49.0987 89.0244 49.4558L89.5465 50.3087ZM92.9487 48.0992C93.5138 47.7095 94.0655 47.3169 94.6039 46.9215L94.0119 46.1155C93.4816 46.5049 92.938 46.8918 92.381 47.276L92.9487 48.0992ZM96.2131 45.7006C96.751 45.2789 97.2743 44.8543 97.7831 44.4271L97.1401 43.6613C96.64 44.0811 96.1254 44.4987 95.5961 44.9137L96.2131 45.7006ZM99.3132 43.0955C99.821 42.6372 100.312 42.1762 100.788 41.7129L100.09 40.9968C99.6238 41.451 99.1416 41.9032 98.6432 42.3532L99.3132 43.0955ZM102.212 40.2666C102.684 39.7671 103.138 39.2653 103.573 38.7616L102.817 38.1077C102.391 38.6 101.947 39.0909 101.486 39.5798L102.212 40.2666ZM104.861 37.1991C105.288 36.6546 105.694 36.1082 106.079 35.5606L105.261 34.9851C104.886 35.5183 104.49 36.0507 104.074 36.582L104.861 37.1991ZM107.192 33.8842C107.561 33.2924 107.907 32.6996 108.229 32.1063L107.35 31.6296C107.038 32.2046 106.702 32.7798 106.344 33.3547L107.192 33.8842ZM109.14 30.2884C109.428 29.6622 109.69 29.0362 109.926 28.411L108.991 28.0578C108.763 28.6605 108.51 29.2648 108.232 29.87L109.14 30.2884ZM110.579 26.4626C110.772 25.7997 110.936 25.1384 111.071 24.4798L110.092 24.279C109.962 24.9104 109.805 25.5451 109.619 26.1823L110.579 26.4626ZM111.394 22.4638C111.474 21.7743 111.521 21.0888 111.536 20.4083L110.536 20.3864C110.522 21.0355 110.477 21.6901 110.401 22.3492L111.394 22.4638ZM111.482 18.3549C111.431 17.6689 111.346 16.9895 111.228 16.3176L110.243 16.4907C110.355 17.1298 110.436 17.7764 110.485 18.4296L111.482 18.3549ZM110.77 14.3123C110.585 13.6537 110.366 13.004 110.114 12.3645L109.184 12.7305C109.423 13.3392 109.631 13.9572 109.808 14.5835L110.77 14.3123ZM109.27 10.4938C108.961 9.88834 108.62 9.29379 108.249 8.71113L107.405 9.24832C107.76 9.80477 108.085 10.372 108.38 10.949L109.27 10.4938ZM107.066 7.02757C106.655 6.49552 106.217 5.97523 105.752 5.46755L105.015 6.14294C105.461 6.63032 105.881 7.12913 106.274 7.63851L107.066 7.02757ZM104.312 4.01641C103.818 3.55546 103.299 3.1068 102.756 2.67114L102.13 3.45108C102.654 3.87164 103.155 4.30417 103.631 4.74792L104.312 4.01641ZM101.133 1.45763C100.851 1.2615 100.565 1.06851 100.272 0.878731L99.7277 1.71746C100.011 1.90137 100.289 2.08828 100.561 2.2781L101.133 1.45763Z" fill="black"/>
</svg>
