<svg width="112" height="73" viewBox="0 0 112 73" fill="none" xmlns="http://www.w3.org/2000/svg">
<path d="M0.646447 68.3806C0.451184 68.5758 0.451184 68.8924 0.646447 69.0877L3.82843 72.2696C4.02369 72.4649 4.34027 72.4649 4.53553 72.2696C4.7308 72.0744 4.7308 71.7578 4.53553 71.5625L1.70711 68.7341L4.53553 65.9057C4.7308 65.7104 4.7308 65.3938 4.53553 65.1986C4.34027 65.0033 4.02369 65.0033 3.82843 65.1986L0.646447 68.3806ZM1 69.2341C1.34312 69.2341 1.68537 69.2336 2.02675 69.2325L2.02358 68.2325C1.68326 68.2336 1.34206 68.2341 1 68.2341V69.2341ZM4.06467 69.2196C4.74051 69.2131 5.4129 69.2045 6.08184 69.1938L6.06585 68.1939C5.39907 68.2046 4.72883 68.2132 4.05512 68.2196L4.06467 69.2196ZM8.07831 69.1554C8.74035 69.1405 9.39896 69.1235 10.0541 69.1045L10.0251 68.1049C9.3721 68.1239 8.71568 68.1408 8.05581 68.1557L8.07831 69.1554ZM12.087 69.0384C12.7672 69.0139 13.4437 68.9872 14.1165 68.9582L14.0735 67.9592C13.4031 67.988 12.7289 68.0146 12.051 68.039L12.087 69.0384ZM16.1234 68.8648C16.7886 68.8314 17.45 68.7959 18.1077 68.7581L18.0504 67.7598C17.3951 67.7974 16.7361 67.8328 16.0733 67.866L16.1234 68.8648ZM20.1019 68.6364C20.785 68.5922 21.4639 68.5456 22.1388 68.4967L22.0664 67.4993C21.3942 67.548 20.7178 67.5944 20.0373 67.6385L20.1019 68.6364ZM24.1509 68.3429C24.8174 68.2893 25.4799 68.2335 26.1383 68.1754L26.0504 67.1792C25.3946 67.2371 24.7348 67.2928 24.0708 67.3461L24.1509 68.3429ZM28.108 67.9935C28.7919 67.9276 29.4712 67.8593 30.1459 67.7884L30.0416 66.7939C29.3696 66.8644 28.6931 66.9325 28.0121 66.9981L28.108 67.9935ZM32.1568 67.5687C32.8225 67.4931 33.4838 67.415 34.1406 67.3346L34.019 66.342C33.3652 66.4221 32.7068 66.4998 32.0439 66.5751L32.1568 67.5687ZM36.0994 67.086C36.7815 66.9964 37.4585 66.9042 38.1307 66.8094L37.9911 65.8192C37.3221 65.9135 36.6481 66.0053 35.9692 66.0945L36.0994 67.086ZM40.1322 66.5176C40.7944 66.4178 41.4517 66.3155 42.1041 66.2108L41.9456 65.2234C41.2964 65.3277 40.6423 65.4295 39.9832 65.5288L40.1322 66.5176ZM44.0645 65.8862C44.7416 65.7706 45.4132 65.6524 46.0794 65.5315L45.9009 64.5475C45.2381 64.6678 44.5699 64.7854 43.8962 64.9004L44.0645 65.8862ZM48.0618 65.161C48.7171 65.0349 49.3671 64.9062 50.0116 64.775L49.8121 63.7951C49.1711 63.9256 48.5247 64.0536 47.8728 64.179L48.0618 65.161ZM51.9838 64.362C52.6521 64.2181 53.3144 64.0715 53.9708 63.9221L53.7489 62.9471C53.0964 63.0955 52.4379 63.2413 51.7734 63.3844L51.9838 64.362ZM55.9218 63.4661C56.5686 63.3108 57.2093 63.1529 57.8441 62.9923L57.5989 62.0229C56.9681 62.1824 56.3312 62.3394 55.6884 62.4937L55.9218 63.4661ZM59.8281 62.4769C60.4829 62.3023 61.131 62.1248 61.7726 61.9446L61.5022 60.9819C60.8649 61.1609 60.221 61.3372 59.5704 61.5107L59.8281 62.4769ZM63.6776 61.3958C64.3345 61.2017 64.9842 61.0047 65.6268 60.8049L65.3298 59.85C64.6918 60.0484 64.0466 60.244 63.3943 60.4367L63.6776 61.3958ZM67.5548 60.1898C68.1902 59.9819 68.8183 59.7712 69.4392 59.5577L69.114 58.612C68.4979 58.8239 67.8745 59.033 67.2438 59.2394L67.5548 60.1898ZM71.3536 58.8824C71.9948 58.6504 72.6279 58.4154 73.253 58.1776L72.8973 57.243C72.2774 57.4789 71.6495 57.7119 71.0134 57.942L71.3536 58.8824ZM75.104 57.4554C75.7407 57.2007 76.3686 56.9429 76.9878 56.6822L76.5998 55.7606C75.9862 56.0189 75.3638 56.2744 74.7326 56.5269L75.104 57.4554ZM78.8433 55.8806C79.453 55.6104 80.0537 55.3373 80.6456 55.0613L80.2229 54.155C79.637 54.4282 79.042 54.6987 78.4381 54.9664L78.8433 55.8806ZM82.4982 54.1741C83.1057 53.8752 83.7033 53.5734 84.291 53.2686L83.8306 52.3809C83.2493 52.6823 82.6581 52.981 82.0568 53.2767L82.4982 54.1741ZM86.0661 52.3229C86.6683 51.9932 87.2595 51.6604 87.8395 51.3247L87.3386 50.4592C86.7655 50.7909 86.1813 51.1198 85.5859 51.4457L86.0661 52.3229ZM89.5465 50.3087C90.1373 49.9471 90.7158 49.5823 91.282 49.2146L90.7373 48.376C90.1787 48.7387 89.6078 49.0988 89.0244 49.4558L89.5465 50.3087ZM92.9487 48.0993C93.5138 47.7096 94.0655 47.317 94.6039 46.9215L94.0119 46.1155C93.4816 46.505 92.938 46.8919 92.381 47.276L92.9487 48.0993ZM96.2131 45.7007C96.751 45.279 97.2743 44.8544 97.7831 44.4272L97.1401 43.6613C96.64 44.0812 96.1254 44.4987 95.5961 44.9137L96.2131 45.7007ZM99.3132 43.0956C99.821 42.6372 100.312 42.1763 100.788 41.713L100.09 40.9969C99.6238 41.4511 99.1416 41.9033 98.6432 42.3533L99.3132 43.0956ZM102.212 40.2666C102.684 39.7672 103.138 39.2654 103.573 38.7617L102.817 38.1078C102.391 38.6001 101.947 39.0909 101.486 39.5799L102.212 40.2666ZM104.861 37.1991C105.288 36.6546 105.694 36.1083 106.079 35.5606L105.261 34.9851C104.886 35.5184 104.49 36.0508 104.074 36.582L104.861 37.1991ZM107.192 33.8843C107.561 33.2925 107.907 32.6997 108.229 32.1064L107.35 31.6296C107.038 32.2046 106.702 32.7799 106.344 33.3548L107.192 33.8843ZM109.14 30.2884C109.428 29.6623 109.69 29.0363 109.926 28.4111L108.991 28.0579C108.763 28.6606 108.51 29.2649 108.232 29.8701L109.14 30.2884ZM110.579 26.4627C110.772 25.7997 110.936 25.1385 111.071 24.4798L110.092 24.2791C109.962 24.9104 109.805 25.5451 109.619 26.1824L110.579 26.4627ZM111.394 22.4639C111.474 21.7744 111.521 21.0889 111.536 20.4083L110.536 20.3864C110.522 21.0356 110.477 21.6901 110.401 22.3493L111.394 22.4639ZM111.482 18.3549C111.431 17.669 111.346 16.9895 111.228 16.3176L110.243 16.4908C110.355 17.1299 110.436 17.7765 110.485 18.4296L111.482 18.3549ZM110.77 14.3124C110.585 13.6537 110.366 13.0041 110.114 12.3645L109.184 12.7306C109.423 13.3392 109.631 13.9572 109.808 14.5836L110.77 14.3124ZM109.27 10.4938C108.961 9.8884 108.62 9.29386 108.249 8.71119L107.405 9.24838C107.76 9.80483 108.085 10.372 108.38 10.949L109.27 10.4938ZM107.066 7.02763C106.655 6.49558 106.217 5.9753 105.752 5.46761L105.015 6.143C105.461 6.63038 105.881 7.12919 106.274 7.63858L107.066 7.02763ZM104.312 4.01647C103.818 3.55552 103.299 3.10686 102.756 2.6712L102.13 3.45114C102.654 3.8717 103.155 4.30424 103.631 4.74798L104.312 4.01647ZM101.133 1.45769C100.851 1.26156 100.565 1.06857 100.272 0.878792L99.7277 1.71752C100.011 1.90144 100.289 2.08834 100.561 2.27816L101.133 1.45769Z" fill="white"/>
</svg>
