<svg width="23" height="25" viewBox="0 0 23 25" fill="none" xmlns="http://www.w3.org/2000/svg">
<path d="M13.8343 13.609L16.2797 16.161L19.877 13.9767C20.3579 13.7239 20.6659 13.2113 20.6773 12.6457C20.6678 12.3772 20.5886 12.1166 20.4484 11.8921C20.3082 11.6675 20.1123 11.4876 19.8818 11.3716C19.5824 11.2018 17.021 9.63895 16.0582 9.0504L16.0563 9.0484L4.40899 1.97871C4.17508 1.8229 3.906 1.73524 3.62928 1.72471C3.35257 1.71417 3.07816 1.78114 2.83415 1.91876C2.78663 1.95273 2.74196 1.98971 2.69919 2.02968L13.8343 13.609Z" fill="black" fill-opacity="0.7"/>
<path d="M19.8818 11.3717C19.6023 11.2128 17.3565 9.84281 16.2787 9.1853L13.8105 11.7604L2.64691 23.4046C2.69253 23.4486 2.74195 23.4885 2.79233 23.5245C2.99191 23.6444 3.21621 23.7064 3.44526 23.7054C3.72278 23.7014 3.9946 23.6214 4.23411 23.4736C4.60382 23.2477 16.0563 16.297 16.0563 16.297L19.877 13.9767C20.3579 13.7239 20.6659 13.2113 20.6773 12.6457C20.6678 12.3773 20.5886 12.1167 20.4484 11.8921C20.3082 11.6675 20.1123 11.4876 19.8818 11.3717Z" fill="black" fill-opacity="0.8"/>
<path d="M12.9352 12.6746L2.69917 2.03162C2.51633 2.17724 2.36938 2.36686 2.27065 2.58454C2.17192 2.80223 2.1243 3.04164 2.13177 3.28268V22.2534C2.11942 22.7051 2.31901 23.1238 2.64785 23.4025L12.9352 12.6746Z" fill="black" fill-opacity="0.6"/>
<path d="M19.8818 11.3717C19.1747 10.972 16.6789 9.42912 16.2787 9.1853L13.8105 11.7604L12.9352 12.6737L13.8343 13.609L16.2797 16.1611L19.877 13.9767C20.3579 13.7239 20.6659 13.2113 20.6773 12.6457C20.6678 12.3773 20.5887 12.1167 20.4484 11.8921C20.3082 11.6675 20.1123 11.4876 19.8818 11.3717Z" fill="black"/>
</svg>
