<svg width="35" height="37" viewBox="0 0 35 37" fill="none" xmlns="http://www.w3.org/2000/svg">
<rect y="0.615723" width="35" height="35.7995" rx="8" fill="#4468EA"/>
<path d="M11 18.0156C10.7239 18.0156 10.5 18.2395 10.5 18.5156C10.5 18.7918 10.7239 19.0156 11 19.0156V18.0156ZM24.3536 18.8692C24.5488 18.6739 24.5488 18.3573 24.3536 18.1621L21.1716 14.9801C20.9763 14.7848 20.6597 14.7848 20.4645 14.9801C20.2692 15.1754 20.2692 15.4919 20.4645 15.6872L23.2929 18.5156L20.4645 21.3441C20.2692 21.5393 20.2692 21.8559 20.4645 22.0512C20.6597 22.2464 20.9763 22.2464 21.1716 22.0512L24.3536 18.8692ZM11 19.0156L24 19.0156V18.0156L11 18.0156V19.0156Z" fill="#F8F8FF"/>
</svg>
