<svg width="20" height="20" viewBox="0 0 20 20" fill="none" xmlns="http://www.w3.org/2000/svg">
<path d="M14.0419 0H5.958C2.67272 0 0 2.67273 0 5.95802V14.0419C0 17.3271 2.67272 20 5.95806 20H14.0419C17.3271 20 20 17.3272 20 14.0419V5.95802C19.9999 2.67273 17.3271 0 14.0419 0ZM17.988 14.042C17.988 16.2213 16.2212 17.988 14.0419 17.988H5.95806C3.77875 17.988 2.01205 16.2213 2.01205 14.042V5.95808C2.01205 3.77876 3.77875 2.01198 5.95806 2.01198H14.0419C16.2212 2.01198 17.988 3.77883 17.988 5.95808V14.042Z" fill="white"/>
<path d="M9.99993 4.82715C7.14773 4.82715 4.82715 7.14773 4.82715 9.99994C4.82715 12.8519 7.14773 15.1725 9.99993 15.1725C12.8521 15.1725 15.1725 12.8522 15.1725 9.99994C15.1725 7.14773 12.8521 4.82715 9.99993 4.82715ZM9.99993 13.1605C8.25431 13.1605 6.83913 11.7456 6.83913 9.99994C6.83913 8.25425 8.25431 6.83913 9.99993 6.83913C11.7455 6.83913 13.1605 8.25418 13.1605 9.99994C13.1605 11.7456 11.7455 13.1605 9.99993 13.1605Z" fill="white"/>
<path d="M16.4219 4.86648C16.4219 5.55097 15.8669 6.106 15.1824 6.106C14.4979 6.106 13.9429 5.55097 13.9429 4.86648C13.9429 4.18192 14.4979 3.62695 15.1824 3.62695C15.8671 3.62695 16.4219 4.18178 16.4219 4.86648Z" fill="white"/>
</svg>
