<svg width="21" height="20" viewBox="0 0 21 20" fill="none" xmlns="http://www.w3.org/2000/svg">
<path d="M20.5241 2.30814C20.1942 2.47835 19.855 2.622 19.5084 2.73863C19.9187 2.19884 20.2316 1.56371 20.4225 0.868695C20.4653 0.712906 20.421 0.542383 20.3109 0.440494C20.2009 0.338526 20.0482 0.326312 19.9271 0.409762C19.1911 0.917551 18.397 1.28248 17.5644 1.49587C16.7257 0.54254 15.5866 0 14.4089 0C11.9232 0 9.9008 2.35243 9.9008 5.24393C9.9008 5.47166 9.9132 5.69813 9.93772 5.92145C6.8531 5.60641 3.98539 3.84278 2.01614 1.03284C1.94596 0.932681 1.83785 0.878703 1.72716 0.889026C1.6164 0.899112 1.51689 0.971766 1.46093 1.08343C1.06153 1.88065 0.850376 2.79245 0.850376 3.72016C0.850376 4.98373 1.2382 6.1826 1.92327 7.11937C1.71496 7.03545 1.51282 6.93057 1.31989 6.80599C1.21632 6.73893 1.08991 6.73995 0.987011 6.80859C0.884044 6.87722 0.819486 7.00346 0.816776 7.14144C0.816302 7.16468 0.816302 7.18793 0.816302 7.21149C0.816302 9.09758 1.68895 10.7956 3.02312 11.7212C2.9085 11.7078 2.79395 11.6885 2.68015 11.6632C2.56282 11.6372 2.44217 11.685 2.36305 11.7891C2.28379 11.8931 2.25757 12.0381 2.29409 12.1705C2.78792 13.964 4.05937 15.2832 5.59643 15.6854C4.3216 16.6142 2.86373 17.1007 1.33331 17.1007C1.01397 17.1007 0.692809 17.0789 0.378487 17.0356C0.222343 17.014 0.0730399 17.1213 0.0198627 17.294C-0.0333146 17.4668 0.0230466 17.6595 0.155888 17.7585C2.12196 19.2249 4.3953 20 6.73002 20C11.3198 20 14.191 17.4823 15.7914 15.3702C17.7871 12.7367 18.9317 9.25077 18.9317 5.80648C18.9317 5.66259 18.9298 5.51728 18.926 5.37245C19.7133 4.68239 20.3912 3.84727 20.9428 2.8874C21.0266 2.74162 21.0176 2.54895 20.9205 2.41476C20.8235 2.28048 20.662 2.23706 20.5241 2.30814Z" fill="white"/>
</svg>
