<svg width="20" height="20" viewBox="0 0 20 20" fill="none" xmlns="http://www.w3.org/2000/svg">
<rect width="20" height="20" rx="5" fill="white"/>
<path d="M5.28737 13.4564H7.24036V19.7742C7.24036 19.8989 7.36898 20 7.52772 20H10.8391C10.9978 20 11.1265 19.8989 11.1265 19.7742V13.4862H13.3716C13.5176 13.4862 13.6404 13.4001 13.6571 13.2861L13.998 10.9602C14.0074 10.8963 13.9816 10.8322 13.9271 10.7842C13.8726 10.7361 13.7945 10.7086 13.7126 10.7086H11.1266V9.25062C11.1266 8.81111 11.4277 8.58824 12.0218 8.58824C12.1064 8.58824 13.7126 8.58824 13.7126 8.58824C13.8714 8.58824 14 8.48712 14 8.36243V6.22748C14 6.10274 13.8714 6.00167 13.7126 6.00167H11.3824C11.366 6.00104 11.3295 6 11.2757 6C10.8713 6 9.46595 6.06237 8.3558 6.86488C7.12576 7.7542 7.29674 8.81901 7.3376 9.00363V10.7086H5.28737C5.12862 10.7086 5 10.8096 5 10.9344V13.2305C5 13.3553 5.12862 13.4564 5.28737 13.4564Z" fill="black"/>
</svg>
