<svg width="28" height="30" viewBox="0 0 28 30" fill="none" xmlns="http://www.w3.org/2000/svg">
<path d="M7.40879 2.36651C5.81445 3.25772 3.62224 5.31436 2.49292 6.89112C0.699292 9.56474 0 10.3874 0 15.1862C0 19.8479 0.699292 20.7391 2.29363 23.1386C5.21658 27.4575 8.27239 29.1714 13.454 29.4456C22.8207 29.994 27.9359 24.3725 27.4708 13.9522C27.4044 12.5126 27.2051 12.444 20.7613 12.444H14.1183V15.1862V17.9284H17.772C21.8242 17.9284 22.3557 18.6825 20.0306 21.2876C18.5027 23.0015 16.1112 24.0983 13.919 24.0983C9.99958 24.0983 5.4823 19.2995 5.4823 15.1862C5.4823 12.5126 7.67451 8.8792 10.1989 7.50811C12.9225 5.9999 15.1812 5.93135 17.7055 7.30244C19.5656 8.33076 19.7649 8.26221 21.4921 6.54834C23.0864 4.97158 23.2193 4.4917 22.555 3.66905C20.0306 0.515535 12.1254 -0.170012 7.40879 2.36651Z" fill="#F8F8FF"/>
</svg>
