<svg width="28" height="30" viewBox="0 0 28 30" fill="none" xmlns="http://www.w3.org/2000/svg">
<path d="M7.40879 2.36642C5.81445 3.25763 3.62224 5.31427 2.49292 6.89102C0.699292 9.56465 0 10.3873 0 15.1861C0 19.8478 0.699292 20.7391 2.29363 23.1385C5.21658 27.4574 8.27239 29.1713 13.454 29.4455C22.8207 29.9939 27.9359 24.3725 27.4708 13.9521C27.4044 12.5125 27.2051 12.4439 20.7613 12.4439H14.1183V15.1861V17.9283H17.772C21.8242 17.9283 22.3557 18.6824 20.0306 21.2875C18.5027 23.0014 16.1112 24.0982 13.919 24.0982C9.99958 24.0982 5.4823 19.2994 5.4823 15.1861C5.4823 12.5125 7.67451 8.87911 10.1989 7.50801C12.9225 5.99981 15.1812 5.93126 17.7055 7.30235C19.5656 8.33067 19.7649 8.26212 21.4921 6.54825C23.0864 4.97149 23.2193 4.49161 22.555 3.66896C20.0306 0.515444 12.1254 -0.170103 7.40879 2.36642Z" fill="black"/>
</svg>
