<svg width="23" height="24" viewBox="0 0 23 24" fill="none" xmlns="http://www.w3.org/2000/svg">
<path d="M13.8319 12.895L16.2769 15.449L19.8736 13.263C20.3545 13.01 20.6624 12.497 20.6738 11.931C20.6643 11.6624 20.5851 11.4016 20.445 11.1768C20.3048 10.9521 20.1088 10.772 19.8784 10.656C19.5791 10.486 17.0181 8.922 16.0555 8.333L16.0536 8.331L4.40824 1.256C4.17438 1.10007 3.90534 1.01234 3.62867 1.0018C3.352 0.991259 3.07763 1.05828 2.83367 1.196C2.78615 1.23 2.74149 1.267 2.69873 1.307L13.8319 12.895Z" fill="white" fill-opacity="0.7"/>
<path d="M19.8784 10.656C19.599 10.497 17.3536 9.126 16.276 8.468L13.8081 11.045L2.64645 22.698C2.69207 22.742 2.74148 22.782 2.79184 22.818C2.9914 22.938 3.21566 23 3.44467 22.999C3.72214 22.995 3.99392 22.915 4.23338 22.767C4.60303 22.541 16.0536 15.585 16.0536 15.585L19.8736 13.263C20.3545 13.01 20.6623 12.497 20.6737 11.931C20.6643 11.6624 20.5851 11.4016 20.4449 11.1768C20.3048 10.9521 20.1088 10.772 19.8784 10.656Z" fill="white" fill-opacity="0.8"/>
<path d="M12.933 11.96L2.69871 1.309C2.5159 1.45473 2.36897 1.64449 2.27026 1.86234C2.17155 2.08019 2.12393 2.31978 2.13141 2.561V21.546C2.11905 21.998 2.31861 22.417 2.6474 22.696L12.933 11.96Z" fill="white" fill-opacity="0.6"/>
<path d="M19.8784 10.656C19.1714 10.256 16.676 8.712 16.276 8.468L13.8082 11.045L12.933 11.959L13.8319 12.895L16.2769 15.449L19.8736 13.263C20.3545 13.01 20.6624 12.497 20.6738 11.931C20.6643 11.6624 20.5852 11.4016 20.445 11.1768C20.3048 10.9521 20.1089 10.772 19.8784 10.656Z" fill="white"/>
</svg>
