<svg width="251" height="348" viewBox="0 0 251 348" fill="none" xmlns="http://www.w3.org/2000/svg">
<path d="M150.5 343.5L151.648 342.535L150.5 343.5ZM0.827029 293.017C0.310668 293.665 0.417232 294.609 1.06505 295.125L11.6218 303.54C12.2696 304.056 13.2133 303.95 13.7297 303.302C14.2461 302.654 14.1395 301.71 13.4917 301.194L4.10793 293.714L11.5876 284.331C12.1039 283.683 11.9974 282.739 11.3495 282.223C10.7017 281.706 9.75798 281.813 9.24162 282.461L0.827029 293.017ZM122.803 3.46684C123.837 3.68794 124.863 3.91235 125.882 4.14003L126.536 1.21229C125.509 0.982565 124.473 0.756179 123.43 0.533158L122.803 3.46684ZM131.9 5.54513C133.876 6.02642 135.821 6.52055 137.735 7.02726L138.503 4.1271C136.569 3.61525 134.605 3.11627 132.61 2.63039L131.9 5.54513ZM143.389 8.58487C145.372 9.15335 147.321 9.73591 149.237 10.3323L150.128 7.46787C148.191 6.86467 146.22 6.27562 144.216 5.70101L143.389 8.58487ZM155.063 12.2234C156.97 12.8682 158.841 13.5274 160.677 14.2005L161.71 11.3838C159.849 10.7018 157.954 10.0343 156.024 9.38152L155.063 12.2234ZM166.185 16.3028C168.131 17.0756 170.034 17.865 171.897 18.6704L173.088 15.9169C171.197 15.0993 169.266 14.2984 167.293 13.5148L166.185 16.3028ZM177.362 21.1345C179.15 21.9749 180.897 22.8311 182.604 23.7026L183.968 21.0305C182.232 20.144 180.455 19.2735 178.638 18.4195L177.362 21.1345ZM188.057 26.6125C189.827 27.6002 191.55 28.6056 193.228 29.628L194.789 27.0663C193.078 26.0236 191.322 24.9988 189.519 23.9927L188.057 26.6125ZM198.193 32.792C199.917 33.9412 201.588 35.1097 203.207 36.2968L204.981 33.8776C203.326 32.6634 201.618 31.4692 199.856 30.2956L198.193 32.792ZM207.909 39.9134C209.485 41.1856 211.006 42.4771 212.473 43.7871L214.471 41.5492C212.966 40.2056 211.407 38.882 209.793 37.579L207.909 39.9134ZM216.856 47.9107C218.266 49.3102 219.62 50.7288 220.919 52.1655L223.144 50.1535C221.809 48.6763 220.417 47.2186 218.969 45.7813L216.856 47.9107ZM224.85 56.7741C226.101 58.3297 227.292 59.9046 228.425 61.4975L230.869 59.7583C229.702 58.1174 228.476 56.4958 227.189 54.8946L224.85 56.7741ZM231.752 66.4863C232.811 68.185 233.81 69.9022 234.751 71.6369L237.388 70.2075C236.419 68.4193 235.389 66.6493 234.297 64.8986L231.752 66.4863ZM237.43 76.964C238.274 78.778 239.058 80.6092 239.785 82.4563L242.577 81.3582C241.828 79.4552 241.02 77.5681 240.15 75.6985L237.43 76.964ZM241.801 88.0661C242.42 89.9638 242.982 91.8766 243.49 93.8032L246.391 93.0388C245.869 91.0573 245.29 89.089 244.653 87.1354L241.801 88.0661ZM244.85 99.6218C245.25 101.573 245.597 103.536 245.894 105.51L248.86 105.065C248.556 103.039 248.2 101.024 247.789 99.0196L244.85 99.6218ZM246.633 111.462C246.828 113.44 246.976 115.428 247.078 117.424L250.074 117.271C249.97 115.229 249.818 113.194 249.618 111.167L246.633 111.462ZM247.248 123.435C247.26 125.423 247.229 127.418 247.157 129.418L250.155 129.526C250.228 127.485 250.26 125.448 250.248 123.417L247.248 123.435ZM246.821 135.427C246.671 137.415 246.482 139.406 246.257 141.401L249.238 141.737C249.467 139.707 249.659 137.679 249.812 135.653L246.821 135.427ZM245.479 147.368C245.186 149.347 244.86 151.327 244.501 153.307L247.453 153.842C247.818 151.83 248.149 149.818 248.447 147.807L245.479 147.368ZM243.34 159.21C242.923 161.173 242.476 163.135 242.001 165.094L244.917 165.8C245.398 163.814 245.851 161.825 246.274 159.833L243.34 159.21ZM240.506 170.923C239.982 172.863 239.431 174.8 238.856 176.731L241.732 177.587C242.313 175.632 242.871 173.671 243.402 171.707L240.506 170.923ZM237.069 182.487C236.451 184.4 235.81 186.307 235.149 188.207L237.982 189.193C238.65 187.273 239.298 185.345 239.923 183.41L237.069 182.487ZM233.104 193.89C232.403 195.778 231.682 197.657 230.945 199.527L233.736 200.627C234.48 198.74 235.208 196.842 235.916 194.935L233.104 193.89ZM228.676 205.125C227.9 206.99 227.109 208.844 226.303 210.686L229.052 211.888C229.864 210.03 230.663 208.159 231.446 206.277L228.676 205.125ZM223.842 216.186C222.997 218.032 222.14 219.865 221.272 221.682L223.979 222.974C224.854 221.143 225.718 219.296 226.57 217.435L223.842 216.186ZM218.64 227.087C217.733 228.914 216.816 230.724 215.893 232.515L218.56 233.889C219.49 232.085 220.413 230.262 221.327 228.421L218.64 227.087ZM213.099 237.843C212.137 239.646 211.17 241.428 210.2 243.188L212.827 244.637C213.804 242.865 214.777 241.071 215.746 239.256L213.099 237.843ZM207.257 248.443C206.244 250.223 205.23 251.978 204.218 253.706L206.806 255.222C207.825 253.484 208.845 251.718 209.864 249.926L207.257 248.443ZM201.14 258.883C200.076 260.647 199.017 262.378 197.966 264.074L200.516 265.654C201.574 263.948 202.639 262.206 203.709 260.432L201.14 258.883ZM194.773 269.157C193.655 270.914 192.549 272.627 191.459 274.295L193.971 275.936C195.067 274.258 196.179 272.535 197.303 270.768L194.773 269.157ZM188.181 279.25C187.001 281.011 185.846 282.711 184.721 284.348L187.193 286.047C188.325 284.401 189.487 282.691 190.673 280.92L188.181 279.25ZM181.265 289.312C180.068 291.01 178.917 292.621 177.818 294.141L180.249 295.899C181.355 294.369 182.513 292.748 183.717 291.041L181.265 289.312ZM174.199 299.078C172.859 300.882 171.636 302.498 170.552 303.915L172.934 305.739C174.027 304.311 175.258 302.683 176.607 300.868L174.199 299.078ZM166.807 308.72C166.227 309.448 165.779 310.003 165.477 310.375C165.326 310.561 165.211 310.702 165.134 310.795C165.096 310.841 165.067 310.876 165.048 310.899C165.039 310.911 165.032 310.919 165.027 310.925C165.025 310.928 165.023 310.93 165.022 310.931C165.022 310.932 165.021 310.932 165.021 310.932C165.021 310.932 165.021 310.932 165.021 310.932C165.021 310.932 165.021 310.932 165.021 310.932C165.021 310.932 165.021 310.932 165.021 310.932C165.021 310.932 165.021 310.932 166.175 311.89C167.33 312.848 167.33 312.848 167.33 312.848C167.33 312.848 167.33 312.848 167.33 312.848C167.33 312.847 167.33 312.847 167.33 312.847C167.33 312.847 167.331 312.847 167.331 312.847C167.331 312.846 167.332 312.846 167.332 312.845C167.334 312.843 167.336 312.84 167.339 312.837C167.344 312.831 167.352 312.821 167.362 312.809C167.383 312.784 167.413 312.747 167.453 312.699C167.532 312.602 167.65 312.458 167.805 312.268C168.113 311.888 168.568 311.325 169.154 310.587L166.807 308.72ZM166.175 311.89C165.769 310.446 165.769 310.446 165.769 310.446C165.769 310.446 165.769 310.446 165.769 310.446C165.769 310.446 165.769 310.446 165.768 310.446C165.768 310.446 165.768 310.447 165.767 310.447C165.766 310.447 165.765 310.447 165.764 310.448C165.761 310.449 165.757 310.45 165.752 310.451C165.742 310.454 165.728 310.458 165.711 310.463C165.676 310.473 165.626 310.488 165.561 310.507C165.432 310.546 165.247 310.602 165.011 310.678C164.539 310.829 163.865 311.054 163.047 311.356L164.086 314.171C164.858 313.886 165.489 313.674 165.924 313.535C166.142 313.466 166.31 313.414 166.422 313.381C166.478 313.364 166.519 313.352 166.546 313.344C166.56 313.34 166.57 313.337 166.575 313.336C166.578 313.335 166.58 313.334 166.581 313.334C166.582 313.334 166.582 313.334 166.582 313.334C166.582 313.334 166.582 313.334 166.582 313.334C166.582 313.334 166.582 313.334 166.582 313.334C166.582 313.334 166.582 313.334 166.582 313.334C166.582 313.334 166.581 313.334 166.175 311.89ZM157.81 313.613C156.207 314.409 154.5 315.367 152.845 316.492L154.533 318.973C156.052 317.94 157.636 317.049 159.145 316.299L157.81 313.613ZM148.354 320.213C146.964 321.647 145.748 323.274 144.88 325.103L147.591 326.389C148.289 324.917 149.295 323.554 150.509 322.301L148.354 320.213ZM143.509 331.092C143.508 332.975 143.887 334.955 144.712 337.028L147.499 335.919C146.802 334.168 146.508 332.563 146.509 331.094L143.509 331.092ZM147.575 342.176C148.11 342.928 148.701 343.691 149.352 344.465L151.648 342.535C151.046 341.819 150.505 341.12 150.021 340.439L147.575 342.176ZM149.352 344.465C150.254 345.538 151.388 346.318 152.651 346.835L153.788 344.058C152.925 343.705 152.205 343.197 151.648 342.535L149.352 344.465ZM160.149 347.338C162.426 346.897 164.75 345.991 166.894 344.686L165.334 342.123C163.477 343.253 161.486 344.024 159.579 344.393L160.149 347.338ZM172.346 339.921C173.843 338.044 175.015 335.852 175.656 333.39L172.753 332.633C172.228 334.648 171.263 336.467 170.001 338.05L172.346 339.921ZM175.935 326.063C175.563 323.888 174.791 321.622 173.557 319.285L170.904 320.686C172.005 322.77 172.665 324.736 172.977 326.568L175.935 326.063ZM169.593 313.45C168.878 312.589 168.099 311.721 167.253 310.847L165.097 312.933C165.894 313.756 166.622 314.568 167.286 315.367L169.593 313.45ZM2.1683 295.443C3.21803 295.324 4.26103 295.208 5.29733 295.094L4.96893 292.112C3.92988 292.226 2.88415 292.343 1.8317 292.462L2.1683 295.443ZM11.4351 294.435C13.4583 294.224 15.4549 294.021 17.4253 293.827L17.131 290.841C15.1547 291.036 13.1523 291.24 11.1235 291.451L11.4351 294.435ZM23.6443 293.234C25.6877 293.045 27.7017 292.866 29.6868 292.697L29.4311 289.707C27.4394 289.878 25.4188 290.057 23.3689 290.246L23.6443 293.234ZM35.8496 292.191C37.9115 292.029 39.9406 291.878 41.9374 291.737L41.7254 288.744C39.7209 288.886 37.6844 289.038 35.6152 289.2L35.8496 292.191ZM48.0686 291.327C50.1411 291.197 52.1771 291.078 54.1771 290.97L54.015 287.974C52.0062 288.083 49.9617 288.202 47.8808 288.333L48.0686 291.327ZM60.3095 290.666C62.382 290.573 64.4138 290.493 66.4054 290.424L66.3015 287.426C64.2996 287.495 62.2578 287.576 60.1754 287.669L60.3095 290.666ZM72.5661 290.244C74.6246 290.195 76.6376 290.16 78.6059 290.136L78.5705 287.137C76.5901 287.16 74.5654 287.196 72.4952 287.245L72.5661 290.244ZM84.8109 290.104C86.8955 290.107 88.9261 290.125 90.9042 290.157L90.9525 287.157C88.9595 287.125 86.9143 287.107 84.8156 287.104L84.8109 290.104ZM96.9855 290.303C99.1045 290.372 101.158 290.457 103.147 290.558L103.299 287.562C101.291 287.46 99.2192 287.374 97.0823 287.305L96.9855 290.303ZM109.247 290.93C111.346 291.081 113.365 291.25 115.309 291.436L115.595 288.449C113.627 288.261 111.583 288.09 109.462 287.938L109.247 290.93ZM121.35 292.097C123.459 292.358 125.466 292.641 127.376 292.942L127.844 289.979C125.899 289.672 123.859 289.385 121.719 289.119L121.35 292.097ZM133.378 294.01C135.497 294.433 137.474 294.881 139.317 295.347L140.053 292.439C138.158 291.959 136.132 291.501 133.966 291.068L133.378 294.01ZM145.11 297.007C147.205 297.686 149.076 298.389 150.747 299.102L151.925 296.343C150.165 295.592 148.209 294.858 146.035 294.154L145.11 297.007ZM156.053 301.761C158.034 302.935 159.556 304.093 160.725 305.176L162.764 302.975C161.424 301.734 159.728 300.452 157.583 299.18L156.053 301.761ZM164.067 309.57C164.415 310.338 164.564 310.946 164.628 311.335C164.66 311.53 164.671 311.671 164.675 311.751C164.677 311.792 164.677 311.816 164.677 311.825C164.677 311.829 164.677 311.83 164.677 311.826C164.677 311.824 164.677 311.821 164.677 311.817C164.677 311.815 164.677 311.812 164.678 311.81C164.678 311.808 164.678 311.807 164.678 311.806C164.678 311.805 164.678 311.804 164.678 311.804C164.678 311.803 164.678 311.803 164.678 311.802C164.678 311.802 164.678 311.801 166.175 311.89C167.673 311.979 167.673 311.978 167.673 311.978C167.673 311.977 167.673 311.977 167.673 311.976C167.673 311.976 167.673 311.975 167.673 311.974C167.673 311.972 167.673 311.971 167.673 311.969C167.674 311.965 167.674 311.961 167.674 311.957C167.674 311.948 167.675 311.939 167.675 311.928C167.676 311.906 167.676 311.88 167.677 311.849C167.677 311.788 167.676 311.709 167.672 311.613C167.663 311.422 167.64 311.164 167.588 310.848C167.484 310.214 167.262 309.353 166.8 308.332L164.067 309.57Z" fill="black"/>
</svg>
