<svg width="50" height="50" viewBox="0 0 50 50" fill="none" xmlns="http://www.w3.org/2000/svg">
<path d="M34.1538 16.8869C33.9182 16.7952 33.7074 16.6507 33.5286 16.472V16.472C33.35 16.2933 33.2056 16.0826 33.114 15.8471L27.7957 2.18302C26.8036 -0.366149 23.1965 -0.366139 22.2043 2.18304L16.8859 15.8477C16.7944 16.0828 16.6501 16.293 16.4718 16.4714V16.4714C16.2932 16.65 16.0828 16.7946 15.8475 16.8861L2.18315 22.2041C-0.366048 23.1963 -0.366094 26.8034 2.18308 27.7956L15.8463 33.1136C16.0818 33.2053 16.2926 33.3497 16.4713 33.5285V33.5285C16.6501 33.7072 16.7945 33.918 16.8862 34.1535L22.2042 47.8168C23.1964 50.366 26.8035 50.366 27.7956 47.8167L33.1126 34.1551C33.2045 33.919 33.3494 33.7078 33.5287 33.5287V33.5287C33.7075 33.35 33.9183 33.2054 34.154 33.1137L47.8168 27.7961C50.366 26.8039 50.366 23.1968 47.8168 22.2047L34.1538 16.8869ZM25 33.25C22.0389 33.25 16.7469 31 16.75 24.9997C16.7469 20 22.0389 16.7476 25 16.7476C27.9612 16.7476 33.25 20 33.25 24.9997C33.25 31 28.5 33.25 25 33.25Z" fill="white"/>
</svg>
