<svg width="175" height="138" viewBox="0 0 175 138" fill="none" xmlns="http://www.w3.org/2000/svg">
<path d="M24.1039 132C22.9267 108.159 26.6581 93.0415 39.9499 73.3379" stroke="#2653F5" stroke-width="12" stroke-linecap="round"/>
<path d="M54.4753 56.6935C70.8994 37.6592 84.6519 28.5495 108.86 22.2471" stroke="black" stroke-width="12" stroke-linecap="round"/>
<path d="M131.014 11.5284C127.695 12.2659 125.618 15.405 126.375 18.5399C127.132 21.6748 130.437 23.6183 133.756 22.8808L131.014 11.5284ZM133.756 22.8808C141.028 21.265 146.745 20.6385 152.166 20.9539C157.565 21.2679 162.999 22.5351 169.66 25.0779L174.34 14.2587C166.803 11.382 160.054 9.72346 153.006 9.31353C145.981 8.90497 138.989 9.75638 131.014 11.5284L133.756 22.8808Z" fill="#1E40BA"/>
</svg>
