<svg width="64" height="94" viewBox="0 0 64 94" fill="none" xmlns="http://www.w3.org/2000/svg">
<path d="M0.0367353 92.7314C-0.111583 93.2634 0.19945 93.8149 0.731446 93.9633C1.26344 94.1116 1.81495 93.8006 1.96326 93.2686L0.0367353 92.7314ZM15.0481 56.142L14.123 56.5217L15.0481 56.142ZM17.9347 81.3912L17.0068 81.0183L17.9347 81.3912ZM36.4089 41.0505L37.406 40.9742L36.4089 41.0505ZM42.1821 77.0379L41.2715 76.6247L42.1821 77.0379ZM50.8419 37.5678L49.8579 37.3899L50.8419 37.5678ZM57.8035 0.404709C57.4747 -0.0390577 56.8485 -0.13228 56.4047 0.19649L49.1731 5.55411C48.7294 5.88288 48.6361 6.50915 48.9649 6.95291C49.2937 7.39668 49.9199 7.4899 50.3637 7.16113L56.7918 2.3988L61.5541 8.82688C61.8829 9.27065 62.5092 9.36387 62.9529 9.0351C63.3967 8.70633 63.4899 8.08006 63.1611 7.6363L57.8035 0.404709ZM2.67352 90.7164C2.82138 90.1843 2.50988 89.6331 1.97775 89.4852C1.44563 89.3373 0.894393 89.6488 0.746532 90.181L2.67352 90.7164ZM2.16256 85.0771C2.01496 85.6093 2.32674 86.1604 2.85894 86.308C3.39113 86.4556 3.94222 86.1438 4.08981 85.6116L2.16256 85.0771ZM5.50715 80.5133C5.65563 79.9813 5.34477 79.4297 4.81282 79.2813C4.28087 79.1328 3.72927 79.4436 3.58079 79.9756L5.50715 80.5133ZM5.01574 74.8765C4.86464 75.4077 5.17279 75.9608 5.70401 76.1119C6.23522 76.263 6.78834 75.9548 6.93944 75.4236L5.01574 74.8765ZM8.40678 70.354C8.56344 69.8244 8.26111 69.268 7.73151 69.1114C7.20191 68.9547 6.64559 69.257 6.48893 69.7867L8.40678 70.354ZM8.04758 64.6982C7.87924 65.2242 8.16919 65.7871 8.6952 65.9554C9.2212 66.1238 9.78408 65.8338 9.95241 65.3078L8.04758 64.6982ZM11.663 60.3578C11.8607 59.8421 11.6029 59.2638 11.0872 59.0661C10.5715 58.8684 9.99322 59.1262 9.79554 59.6419L11.663 60.3578ZM12.4413 54.6224C12.0499 55.012 12.0485 55.6452 12.4381 56.0366C12.8278 56.428 13.461 56.4294 13.8524 56.0397L12.4413 54.6224ZM14.6607 58.5875C14.7558 59.1315 15.2739 59.4954 15.818 59.4003C16.362 59.3052 16.7259 58.787 16.6308 58.243L14.6607 58.5875ZM17.1299 63.0389C17.0977 62.4876 16.6247 62.0667 16.0733 62.0989C15.522 62.131 15.1011 62.604 15.1333 63.1554L17.1299 63.0389ZM15.3009 67.8308C15.3116 68.3829 15.7679 68.8219 16.32 68.8112C16.8722 68.8006 17.3112 68.3443 17.3005 67.7921L15.3009 67.8308ZM17.3534 72.5182C17.3498 71.9659 16.8992 71.5211 16.3469 71.5247C15.7947 71.5283 15.3499 71.9789 15.3535 72.5312L17.3534 72.5182ZM15.4004 77.2581C15.4111 77.8102 15.8674 78.2492 16.4196 78.2385C16.9718 78.2278 17.4108 77.7715 17.4001 77.2193L15.4004 77.2581ZM17.7013 81.7217C17.5799 81.1829 17.0447 80.8445 16.5059 80.966C15.9671 81.0874 15.6288 81.6225 15.7502 82.1613L17.7013 81.7217ZM19.6899 79.6893C19.893 79.1757 19.6412 78.5947 19.1276 78.3917C18.614 78.1886 18.0331 78.4403 17.83 78.9539L19.6899 79.6893ZM19.431 74.818C19.2358 75.3347 19.4964 75.9117 20.0131 76.1069C20.5297 76.302 21.1068 76.0414 21.3019 75.5248L19.431 74.818ZM22.8399 71.3275C23.0244 70.8069 22.752 70.2353 22.2314 70.0509C21.7108 69.8664 21.1393 70.1388 20.9548 70.6594L22.8399 71.3275ZM22.3869 66.4691C22.2141 66.9936 22.4993 67.5589 23.0238 67.7317C23.5484 67.9045 24.1137 67.6193 24.2865 67.0947L22.3869 66.4691ZM25.6423 62.8368C25.8051 62.309 25.5093 61.7492 24.9816 61.5864C24.4538 61.4236 23.894 61.7194 23.7312 62.2471L25.6423 62.8368ZM25.0103 57.9979C24.8542 58.5276 25.1571 59.0836 25.6869 59.2397C26.2166 59.3958 26.7726 59.0929 26.9287 58.5631L25.0103 57.9979ZM28.2065 54.1771C28.3612 53.6469 28.0567 53.0917 27.5266 52.937C26.9964 52.7824 26.4412 53.0868 26.2865 53.617L28.2065 54.1771ZM27.6306 49.1083C27.4687 49.6363 27.7655 50.1956 28.2935 50.3576C28.8215 50.5195 29.3808 50.2227 29.5427 49.6947L27.6306 49.1083ZM30.9647 45.2532C31.1411 44.7298 30.8598 44.1625 30.3365 43.9861C29.8131 43.8098 29.2458 44.091 29.0694 44.6144L30.9647 45.2532ZM30.6995 40.1548C30.4922 40.6667 30.739 41.2497 31.2509 41.4571C31.7628 41.6644 32.3459 41.4175 32.5532 40.9057L30.6995 40.1548ZM34.5503 37.0209C34.9033 36.5961 34.8452 35.9657 34.4205 35.6126C33.9958 35.2596 33.3653 35.3177 33.0123 35.7424L34.5503 37.0209ZM37.1393 38.5608C37.0545 38.015 36.5433 37.6414 35.9976 37.7263C35.4518 37.8111 35.0782 38.3223 35.1631 38.8681L37.1393 38.5608ZM35.5926 43.5861C35.6317 44.137 36.1101 44.5518 36.661 44.5127C37.2119 44.4735 37.6267 43.9952 37.5876 43.4443L35.5926 43.5861ZM37.927 48.397C37.8899 47.8459 37.4132 47.4292 36.8622 47.4663C36.3111 47.5033 35.8944 47.98 35.9315 48.5311L37.927 48.397ZM36.2667 53.4809C36.3047 54.0319 36.7822 54.4477 37.3332 54.4096C37.8841 54.3716 38.3 53.8941 38.2619 53.3432L36.2667 53.4809ZM38.6171 58.284C38.5755 57.7333 38.0953 57.3206 37.5446 57.3623C36.9939 57.4039 36.5812 57.8841 36.6228 58.4348L38.6171 58.284ZM37.0255 63.3906C37.074 63.9408 37.5593 64.3474 38.1095 64.2989C38.6596 64.2504 39.0663 63.7651 39.0177 63.2149L37.0255 63.3906ZM39.5028 68.1283C39.4414 67.5794 38.9466 67.1843 38.3978 67.2458C37.8489 67.3073 37.4538 67.802 37.5153 68.3509L39.5028 68.1283ZM38.1859 73.3148C38.2773 73.8595 38.7929 74.227 39.3376 74.1356C39.8823 74.0442 40.2497 73.5286 40.1584 72.9839L38.1859 73.3148ZM41.3319 77.3312C41.0187 76.8763 40.3961 76.7614 39.9412 77.0746C39.4863 77.3878 39.3714 78.0104 39.6846 78.4654L41.3319 77.3312ZM44.0138 74.9841C44.1832 74.4585 43.8944 73.895 43.3687 73.7256C42.8431 73.5562 42.2796 73.845 42.1102 74.3707L44.0138 74.9841ZM43.4488 69.5618C43.3151 70.0977 43.6412 70.6404 44.1771 70.7741C44.7129 70.9078 45.2557 70.5817 45.3894 70.0458L43.4488 69.5618ZM46.5461 65.0927C46.6652 64.5534 46.3246 64.0196 45.7853 63.9005C45.246 63.7814 44.7123 64.122 44.5932 64.6613L46.5461 65.0927ZM45.6401 59.7301C45.5292 60.2712 45.8778 60.7997 46.4188 60.9106C46.9599 61.0216 47.4884 60.6729 47.5993 60.1319L45.6401 59.7301ZM48.5919 55.1605C48.6975 54.6184 48.3438 54.0933 47.8017 53.9876C47.2596 53.8819 46.7345 54.2357 46.6288 54.7778L48.5919 55.1605ZM47.578 49.8175C47.4758 50.3602 47.833 50.883 48.3758 50.9851C48.9185 51.0873 49.4413 50.7301 49.5435 50.1873L47.578 49.8175ZM50.4682 45.2104C50.568 44.6672 50.2085 44.1459 49.6653 44.0461C49.1221 43.9463 48.6009 44.3057 48.5011 44.8489L50.4682 45.2104ZM49.408 39.8755C49.3094 40.419 49.6701 40.9394 50.2135 41.0379C50.757 41.1364 51.2774 40.7757 51.3759 40.2323L49.408 39.8755ZM52.2376 35.4605C52.3351 34.9169 51.9735 34.3971 51.4299 34.2996C50.8863 34.2021 50.3665 34.5637 50.269 35.1073L52.2376 35.4605ZM51.0807 30.5469C50.9846 31.0907 51.3477 31.6095 51.8916 31.7055C52.4354 31.8015 52.9542 31.4384 53.0502 30.8946L51.0807 30.5469ZM53.8503 26.3257C53.9448 25.7816 53.5803 25.2638 53.0361 25.1693C52.492 25.0748 51.9743 25.4393 51.8798 25.9835L53.8503 26.3257ZM52.6663 21.4165C52.5733 21.9609 52.9393 22.4776 53.4837 22.5706C54.0281 22.6636 54.5448 22.2976 54.6378 21.7532L52.6663 21.4165ZM55.4116 17.1812C55.5029 16.6365 55.1354 16.1209 54.5908 16.0295C54.0461 15.9382 53.5305 16.3057 53.4391 16.8504L55.4116 17.1812ZM54.1984 12.2788C54.1088 12.8238 54.478 13.3382 55.0229 13.4278C55.5679 13.5174 56.0823 13.1482 56.1719 12.6032L54.1984 12.2788ZM56.9158 8.02614C57.0033 7.48083 56.6322 6.96783 56.0869 6.88031C55.5416 6.79279 55.0286 7.1639 54.9411 7.70921L56.9158 8.02614ZM55.6633 3.13543C55.5789 3.68122 55.9528 4.19215 56.4986 4.27663C57.0444 4.36111 57.5553 3.98715 57.6398 3.44137L55.6633 3.13543ZM1.96326 93.2686C2.20308 92.4084 2.43982 91.5575 2.67352 90.7164L0.746532 90.181C0.512949 91.0216 0.276362 91.8719 0.0367353 92.7314L1.96326 93.2686ZM4.08981 85.6116C4.57664 83.8563 5.04894 82.1549 5.50715 80.5133L3.58079 79.9756C3.1221 81.6189 2.64942 83.3216 2.16256 85.0771L4.08981 85.6116ZM6.93944 75.4236C7.44805 73.6355 7.93696 71.9422 8.40678 70.354L6.48893 69.7867C6.01657 71.3835 5.52565 73.0837 5.01574 74.8765L6.93944 75.4236ZM9.95241 65.3078C10.5625 63.4016 11.132 61.7429 11.663 60.3578L9.79554 59.6419C9.24625 61.0748 8.66401 62.772 8.04758 64.6982L9.95241 65.3078ZM13.8524 56.0397C13.9742 55.9184 14.0292 55.9016 14.0128 55.9075C13.9998 55.9122 13.9671 55.9214 13.9196 55.921C13.8708 55.9207 13.8261 55.9105 13.7914 55.8964C13.7281 55.8706 13.7472 55.8535 13.8268 55.959C13.9047 56.0624 14.0073 56.2397 14.123 56.5217L15.9732 55.7622C15.6909 55.0744 15.2666 54.3371 14.5445 54.0436C13.6649 53.6861 12.9076 54.1581 12.4413 54.6224L13.8524 56.0397ZM14.123 56.5217C14.3262 57.0167 14.5072 57.71 14.6607 58.5875L16.6308 58.243C16.4662 57.3016 16.2549 56.4484 15.9732 55.7622L14.123 56.5217ZM15.1333 63.1554C15.2195 64.6331 15.2697 66.2199 15.3009 67.8308L17.3005 67.7921C17.2691 66.1672 17.2182 64.5522 17.1299 63.0389L15.1333 63.1554ZM15.3535 72.5312C15.3644 74.2171 15.3728 75.8334 15.4004 77.2581L17.4001 77.2193C17.3727 75.8108 17.3644 74.2105 17.3534 72.5182L15.3535 72.5312ZM15.7502 82.1613C15.8119 82.4352 15.908 82.7684 16.0876 83.0407C16.1811 83.1826 16.3444 83.3807 16.6091 83.5086C16.9082 83.6531 17.2327 83.6574 17.5176 83.5562C17.7686 83.4671 17.9479 83.3123 18.062 83.1933C18.182 83.0683 18.2824 82.9274 18.367 82.791C18.5358 82.519 18.6993 82.1703 18.8626 81.7641L17.0068 81.0183C16.8619 81.3788 16.7483 81.6064 16.6675 81.7366C16.6274 81.8013 16.61 81.8179 16.6187 81.8088C16.6216 81.8059 16.6961 81.7256 16.8484 81.6715C17.0348 81.6053 17.2668 81.6052 17.4791 81.7077C17.657 81.7937 17.7393 81.9125 17.7572 81.9396C17.7854 81.9824 17.7515 81.9444 17.7013 81.7217L15.7502 82.1613ZM18.8626 81.7641C19.1483 81.053 19.4237 80.3625 19.6899 79.6893L17.83 78.9539C17.5653 79.6233 17.2913 80.3104 17.0068 81.0183L18.8626 81.7641ZM21.3019 75.5248C21.8473 74.0811 22.355 72.6959 22.8399 71.3275L20.9548 70.6594C20.4748 72.014 19.9718 73.3863 19.431 74.818L21.3019 75.5248ZM24.2865 67.0947C24.7411 65.7146 25.188 64.3092 25.6423 62.8368L23.7312 62.2471C23.2801 63.709 22.8371 65.1023 22.3869 66.4691L24.2865 67.0947ZM26.9287 58.5631C27.1332 57.8691 27.3416 57.156 27.5549 56.4206L25.6341 55.8633C25.4214 56.5964 25.2139 57.3069 25.0103 57.9979L26.9287 58.5631ZM27.5549 56.4206C27.7555 55.7292 27.9736 54.9756 28.2065 54.1771L26.2865 53.617C26.053 54.4174 25.8342 55.1735 25.6341 55.8633L27.5549 56.4206ZM29.5427 49.6947C29.998 48.21 30.4771 46.6999 30.9647 45.2532L29.0694 44.6144C28.5743 46.0836 28.0895 47.6121 27.6306 49.1083L29.5427 49.6947ZM32.5532 40.9057C33.3074 39.0439 33.995 37.6889 34.5503 37.0209L33.0123 35.7424C32.2362 36.676 31.451 38.2996 30.6995 40.1548L32.5532 40.9057ZM35.1631 38.8681C35.2601 39.4923 35.3441 40.2408 35.4118 41.1268L37.406 40.9742C37.3354 40.051 37.2463 39.249 37.1393 38.5608L35.1631 38.8681ZM35.4118 41.1268C35.4719 41.9119 35.5321 42.734 35.5926 43.5861L37.5876 43.4443C37.5269 42.5896 37.4664 41.7639 37.406 40.9742L35.4118 41.1268ZM35.9315 48.5311C36.0398 50.1429 36.151 51.8052 36.2667 53.4809L38.2619 53.3432C38.1464 51.6698 38.0354 50.0097 37.927 48.397L35.9315 48.5311ZM36.6228 58.4348C36.7502 60.1201 36.8838 61.7845 37.0255 63.3906L39.0177 63.2149C38.877 61.6192 38.744 59.9635 38.6171 58.284L36.6228 58.4348ZM37.5153 68.3509C37.7206 70.1839 37.9427 71.8654 38.1859 73.3148L40.1584 72.9839C39.9233 71.5831 39.7058 69.9406 39.5028 68.1283L37.5153 68.3509ZM39.6846 78.4654C39.8567 78.7154 40.1069 78.9984 40.465 79.1658C40.873 79.3566 41.3191 79.3487 41.7189 79.1608C42.0711 78.9951 42.334 78.7166 42.5299 78.4501C42.7334 78.1732 42.9189 77.8343 43.0928 77.451L41.2715 76.6247C41.1307 76.935 41.011 77.1395 40.9184 77.2656C40.8182 77.4019 40.7941 77.3855 40.8679 77.3508C40.9135 77.3294 40.987 77.306 41.0805 77.3054C41.1749 77.3047 41.255 77.3273 41.3121 77.354C41.4085 77.3991 41.4054 77.438 41.3319 77.3312L39.6846 78.4654ZM43.0928 77.451C43.3959 76.7829 43.7034 75.9474 44.0138 74.9841L42.1102 74.3707C41.8116 75.2973 41.5307 76.0533 41.2715 76.6247L43.0928 77.451ZM45.3894 70.0458C45.7686 68.5253 46.1556 66.8604 46.5461 65.0927L44.5932 64.6613C44.2055 66.4163 43.8226 68.063 43.4488 69.5618L45.3894 70.0458ZM47.5993 60.1319C47.9308 58.5153 48.2625 56.8501 48.5919 55.1605L46.6288 54.7778C46.3004 56.4623 45.97 58.1211 45.6401 59.7301L47.5993 60.1319ZM49.5435 50.1873C49.8568 48.5223 50.1658 46.856 50.4682 45.2104L48.5011 44.8489C48.1991 46.4924 47.8906 48.1559 47.578 49.8175L49.5435 50.1873ZM51.3759 40.2323C51.5286 39.3901 51.6787 38.5601 51.826 37.7458L49.8579 37.3899C49.7106 38.2041 49.5606 39.0337 49.408 39.8755L51.3759 40.2323ZM51.826 37.7458C51.9651 36.9766 52.1023 36.2147 52.2376 35.4605L50.269 35.1073C50.1339 35.8606 49.9968 36.6216 49.8579 37.3899L51.826 37.7458ZM53.0502 30.8946C53.3264 29.3299 53.5933 27.8055 53.8503 26.3257L51.8798 25.9835C51.6231 27.4615 51.3566 28.984 51.0807 30.5469L53.0502 30.8946ZM54.6378 21.7532C54.9096 20.1616 55.1677 18.6354 55.4116 17.1812L53.4391 16.8504C53.1956 18.3026 52.9378 19.8269 52.6663 21.4165L54.6378 21.7532ZM56.1719 12.6032C56.4454 10.94 56.6938 9.40958 56.9158 8.02614L54.9411 7.70921C54.7194 9.09009 54.4714 10.618 54.1984 12.2788L56.1719 12.6032ZM57.6398 3.44137C57.7807 2.53088 57.8975 1.76231 57.9891 1.14723L56.0109 0.852767C55.92 1.46314 55.8038 2.22777 55.6633 3.13543L57.6398 3.44137Z" fill="black"/>
</svg>
