<svg width="60" height="60" viewBox="0 0 60 60" fill="none" xmlns="http://www.w3.org/2000/svg">
<circle cx="30" cy="30" r="30" fill="#4468EA"/>
<path d="M36.5 28.9189C36.5 33.3105 33.0123 36.8378 28.75 36.8378C24.4877 36.8378 21 33.3105 21 28.9189C21 24.5273 24.4877 21 28.75 21C33.0123 21 36.5 24.5273 36.5 28.9189Z" stroke="#F8F8FF" stroke-width="2"/>
<path d="M36.052 34.6546L35.6984 34.3011L34.9913 35.0082L35.3449 35.3617L36.052 34.6546ZM39.638 39.6549C39.8333 39.8501 40.1499 39.8501 40.3451 39.6549C40.5404 39.4596 40.5404 39.143 40.3451 38.9478L39.638 39.6549ZM35.3449 35.3617L39.638 39.6549L40.3451 38.9478L36.052 34.6546L35.3449 35.3617Z" fill="#F8F8FF"/>
</svg>
