<svg width="60" height="60" viewBox="0 0 60 60" fill="none" xmlns="http://www.w3.org/2000/svg">
<circle cx="30" cy="30" r="30" fill="#4468EA"/>
<path d="M23.7056 16.0181C23.2548 16.0736 22.9148 16.2374 22.5773 16.5576C22.3796 16.7441 22.3163 16.8247 22.2188 17.0163C22.1503 17.1424 22.0738 17.3364 22.0475 17.4448C22.0026 17.6339 22 18.0927 22 29.5139C22 40.8242 22.0026 41.3939 22.0475 41.5628C22.0738 41.6585 22.1476 41.8476 22.2162 41.9787C22.319 42.1803 22.3717 42.2509 22.5773 42.445C22.7777 42.6366 22.8568 42.6945 23.0677 42.7928C23.5501 43.0197 22.9306 42.9995 29.5 42.9995C36.0694 42.9995 35.4499 43.0197 35.9323 42.7928C36.1432 42.6945 36.2223 42.6366 36.4227 42.445C36.6283 42.2509 36.681 42.1803 36.7838 41.9787C36.8524 41.8476 36.9262 41.6585 36.9525 41.5628C36.9974 41.3939 37 40.8242 37 29.5013C37 18.1784 36.9974 17.6087 36.9525 17.4398C36.9262 17.3415 36.8524 17.155 36.7838 17.0239C36.681 16.8222 36.6283 16.7516 36.4227 16.5576C36.1511 16.2979 35.8981 16.1542 35.5448 16.0585L35.3392 16.003L29.6054 16.0005C26.4525 15.998 23.7979 16.0055 23.7056 16.0181ZM30.7865 17.7851C30.8339 17.8305 30.826 18.0221 30.7759 18.0674C30.739 18.1027 30.5888 18.1078 29.5 18.1078C28.4112 18.1078 28.261 18.1027 28.2241 18.0674C28.174 18.0221 28.1661 17.8305 28.2135 17.7851C28.2583 17.7423 30.7417 17.7423 30.7865 17.7851ZM35.6687 29.5013V39.1051H29.5H23.3313V29.5013V19.8975H29.5H35.6687V29.5013ZM29.6845 39.9394C30.2012 40.0176 30.6046 40.4058 30.6916 40.9049C30.7891 41.472 30.3937 42.0442 29.8032 42.1929C29.1178 42.3618 28.4323 41.9333 28.3111 41.2577C28.203 40.6553 28.6591 40.0403 29.2891 39.9394C29.4895 39.9092 29.4921 39.9092 29.6845 39.9394Z" fill="#F8F8FF"/>
</svg>
