<svg width="130" height="132" viewBox="0 0 130 132" fill="none" xmlns="http://www.w3.org/2000/svg">
<path d="M41.7691 18.5597C46.4167 9.43192 58.2918 8.17633 65.1364 16.089L107.52 65.0874C111.204 69.3457 112.469 75.3213 110.816 80.6497L109.588 84.6052C109.198 85.8631 108.653 87.0553 107.968 88.1518L102.898 96.2627C101.973 97.7427 100.805 99.0285 99.4455 100.061L91.3135 106.242C89.7862 107.402 88.0467 108.222 86.1948 108.655L78.2837 110.5C75.4911 111.152 72.5475 110.898 69.8274 109.77L24.2314 90.8618C15.8512 87.3867 12.0568 76.9141 16.2173 68.7429L41.7691 18.5597Z" fill="#2653F5"/>
<g filter="url(#filter0_d_76_844)">
<path d="M6.03455 46.3427C7.01343 35.715 18.4462 29.6627 27.8871 34.7744L71.9742 58.6445C77.2939 61.5247 80.4373 67.2864 79.9604 73.2825L77.2815 106.961C77.1164 109.037 75.5535 110.707 73.5 111V111L16.886 111.663C7.90709 111.768 0.726735 103.97 1.55198 95.0105L6.03455 46.3427Z" fill="black"/>
</g>
<defs>
<filter id="filter0_d_76_844" x="1.4873" y="23.9307" width="98.5206" height="98.7331" filterUnits="userSpaceOnUse" color-interpolation-filters="sRGB">
<feFlood flood-opacity="0" result="BackgroundImageFix"/>
<feColorMatrix in="SourceAlpha" type="matrix" values="0 0 0 0 0 0 0 0 0 0 0 0 0 0 0 0 0 0 127 0" result="hardAlpha"/>
<feOffset dx="10" dy="1"/>
<feGaussianBlur stdDeviation="5"/>
<feComposite in2="hardAlpha" operator="out"/>
<feColorMatrix type="matrix" values="0 0 0 0 0 0 0 0 0 0 0 0 0 0 0 0 0 0 0.5 0"/>
<feBlend mode="normal" in2="BackgroundImageFix" result="effect1_dropShadow_76_844"/>
<feBlend mode="normal" in="SourceGraphic" in2="effect1_dropShadow_76_844" result="shape"/>
</filter>
</defs>
</svg>
