<svg width="60" height="60" viewBox="0 0 60 60" fill="none" xmlns="http://www.w3.org/2000/svg">
<circle cx="30" cy="30" r="30" fill="#4468EA"/>
<path d="M30.7085 37.8614L29.7001 37.8614C28.9899 37.8614 28.9916 37.872 28.9916 38.6543L28.9916 40.1882C28.9916 40.7374 28.9983 40.6063 29.7085 40.6063H30.7085C31.4187 40.6063 31.4958 40.6063 31.4958 40.1063V38.6064C31.4958 37.8218 31.4187 37.8614 30.7085 37.8614Z" fill="#F8F8FF"/>
<path d="M24 24.9134L25.8601 25.1686C26.4501 25.249 26.6169 25.2159 26.8293 24.6038C27.0975 23.8309 27.4708 23.2212 27.9492 22.7768C28.6272 22.1481 29.4704 21.8314 30.4788 21.8314C31.5236 21.8314 32.3561 22.134 32.974 22.7366C33.5919 23.3417 33.8987 24.0649 33.8987 24.9134C33.8987 25.5232 33.7249 26.0809 33.3773 26.5867C33.152 26.9082 32.459 27.5841 31.3026 28.6169C30.1462 29.6498 29.8862 30.671 29.5 31.4983C29.1052 32.3444 29.0343 33.0575 29 33.9981C28.97 34.8041 28.9748 35.6104 29.7085 35.6104H30.7598C31.4292 35.6104 31.4399 35.2308 31.5 34.4981C31.5429 33.9711 31.3798 33.27 31.5 32.9982C31.5 32.4982 32.1372 31.264 32.974 30.4983C34.5938 29.0211 35.5044 28.3588 36 27.4985C36.4935 26.6405 36.5 26.4605 36.5 25.4986C36.5 23.7614 36.3285 22.2474 34.9832 20.938C33.6402 19.6287 32.9783 19 30.704 19C28.5414 19 27.3302 19.706 26 20.9988C24.8672 22.1002 24.2424 23.4079 24 24.9134Z" fill="#F8F8FF"/>
</svg>
