<svg width="60" height="60" viewBox="0 0 60 60" fill="none" xmlns="http://www.w3.org/2000/svg">
<circle cx="30" cy="30" r="30" fill="#4468EA"/>
<path d="M35.3817 26.9235V28.9554V30.9532L32.3752 34.4393L29.2449 30.8099L28.677 30.1514L28.109 30.8099L26.2819 32.9286L25.8594 33.4184L25.8718 33.4327L25.6149 33.4216C23.2745 33.3202 21.2311 32.8522 19.7997 32.1862C19.0832 31.8528 18.553 31.4851 18.2116 31.1189C17.874 30.7568 17.75 30.431 17.75 30.1478V26.9234C18.308 27.3491 18.9965 27.716 19.7701 28.0218C21.5821 28.7378 23.9706 29.1614 26.566 29.1614C29.1612 29.1614 31.5497 28.7378 33.3616 28.0218C34.1352 27.7161 34.8237 27.3492 35.3817 26.9235ZM17.75 34.7313C18.308 35.157 18.9964 35.5239 19.7701 35.8297C21.582 36.5458 23.9706 36.9695 26.566 36.9695C26.7823 36.9695 26.9958 36.9662 27.2082 36.96L28.7832 36.9136L27.754 35.7204L26.468 34.2295C26.3952 34.1451 26.334 34.04 26.2872 33.9144L31.8073 40.3149L32.2538 40.8326C32.2145 40.8141 32.1748 40.7907 32.1349 40.7619L31.8455 40.5525L31.5006 40.6452C30.0875 41.025 28.395 41.2501 26.566 41.2501C23.9999 41.2501 21.7122 40.8091 20.0939 40.125C19.2833 39.7823 18.6758 39.3934 18.282 38.9997C17.8913 38.6091 17.75 38.2568 17.75 37.9553V34.7313ZM32.4498 40.8869L32.9432 40.3149L40.9403 31.0418L41.2481 30.6849C41.2346 30.9346 41.1485 31.179 40.99 31.3628L35.5516 37.6689L35.4012 37.8433L35.3746 38.0721C35.3194 38.5472 34.8837 39.1543 33.822 39.7453L33.7058 39.8099L33.619 39.9105L32.9928 40.6359L32.9924 40.6365C32.8386 40.815 32.6561 40.8888 32.493 40.8888C32.4788 40.8888 32.4644 40.8882 32.4498 40.8869ZM41.232 30.4004L40.9403 30.0622L39.1132 27.9435L38.7306 27.4999C38.875 27.5178 39.0296 27.5941 39.1626 27.7483L39.1626 27.7483L40.9896 29.8665C40.9897 29.8665 40.9897 29.8666 40.9898 29.8666C41.1176 30.015 41.1983 30.2025 41.232 30.4004Z" stroke="#F8F8FF" stroke-width="1.5"/>
<path d="M35.2502 23.1635C35.2502 23.19 35.2288 23.3672 34.8211 23.655C34.4335 23.9286 33.8239 24.2056 33.0031 24.4507C31.3712 24.9379 29.0719 25.25 26.5004 25.25C23.9287 25.25 21.6293 24.9379 19.9973 24.4507C19.1765 24.2057 18.567 23.9287 18.1794 23.655C17.7717 23.3672 17.7502 23.19 17.7502 23.1633V20.836C17.7502 20.8096 17.7716 20.6324 18.1793 20.3446C18.5669 20.0711 19.1765 19.7941 19.9973 19.5491C21.6293 19.062 23.9287 18.75 26.5004 18.75C29.0719 18.75 31.3712 19.062 33.0032 19.5491C33.824 19.794 34.4336 20.071 34.8211 20.3445C35.2288 20.6323 35.2502 20.8095 35.2502 20.836V23.1635Z" stroke="#F8F8FF" stroke-width="1.5"/>
</svg>
