<svg width="146" height="32" viewBox="0 0 146 32" fill="none" xmlns="http://www.w3.org/2000/svg">
<path d="M112.727 2.30451C111.011 3.5812 109.424 4.74183 109.215 4.90763L108.814 5.20608L109.985 5.57084C110.626 5.76981 111.188 5.96877 111.236 6.01851C111.268 6.06826 111.043 6.54909 110.707 7.07966C109.007 9.81542 105.704 15.5025 104.309 18.0725C103.443 19.6642 102.577 21.2559 102.368 21.5875C102.16 21.9357 101.984 22.2507 101.984 22.3005C101.984 22.3502 101.663 22.9471 101.262 23.6103C100.861 24.2901 100.54 24.887 100.54 24.9367C100.54 24.9865 103.603 25.0362 107.355 25.0362H114.186L114.138 22.9139L114.09 20.8082L110.691 20.7585C108.814 20.7419 107.275 20.6756 107.275 20.6258C107.275 20.5098 108.462 18.3377 112.567 10.9429C113.304 9.61646 114.074 8.22371 114.298 7.82578C114.571 7.32837 114.78 7.1294 114.956 7.17914C116.175 7.54391 116.736 7.67655 116.784 7.61023C116.832 7.56049 116.335 2.0558 116.094 0.0329933C116.078 -0.132811 115.485 0.2817 112.727 2.30451Z" fill="#1E40BA"/>
<path d="M41.6914 2.3708C39.1097 3.11692 37.3619 4.29413 35.4377 6.63197C34.8764 7.31176 34.1709 8.70452 33.7219 9.9812C33.4012 10.9263 33.289 11.6227 33.2409 13.1315C33.1286 15.5688 33.4172 17.0279 34.4435 19.117C35.0368 20.344 35.4377 20.9077 36.4639 21.9688C37.9873 23.5108 39.0777 24.2238 41.0179 24.9201C42.2526 25.3678 42.6375 25.4176 44.3372 25.4341C46.6462 25.4507 47.5442 25.2517 49.4684 24.2735C52.4991 22.7647 54.6638 19.9958 55.5618 16.4973C55.8664 15.3367 55.9146 12.4019 55.658 11.2247C55.1769 9.08586 54.0545 7.02989 52.483 5.4216C50.3023 3.19982 47.9611 2.15526 44.8984 2.05578C43.327 1.98945 42.8459 2.0392 41.6914 2.3708ZM46.9349 6.86409C49.2439 7.70969 51.0719 10.0475 51.4728 12.6341C52.0501 16.4641 49.5486 20.0952 45.7483 20.9077C44.9626 21.0735 44.4975 21.0735 43.5194 20.9243C41.1302 20.5429 39.254 19.1336 38.2118 16.9616C37.6666 15.8175 37.6024 15.5522 37.5543 14.06C37.4902 12.6672 37.5383 12.2693 37.8429 11.3905C38.2919 10.1138 38.7409 9.40089 39.6068 8.50555C40.3605 7.74285 41.8036 6.88067 42.7497 6.63197C43.5996 6.41642 46.101 6.54906 46.9349 6.86409Z" fill="#1E40BA"/>
<path d="M61.6872 2.25477C61.6231 2.32109 61.575 7.47759 61.575 13.7118V25.0362H67.5561C74.0022 25.0362 74.4993 24.9865 75.8943 24.1409C76.8404 23.5606 78.1072 22.1347 78.5562 21.1564C79.6466 18.7357 79.2778 15.9833 77.6261 14.2755L76.9687 13.5958L77.5941 13.0154C78.3156 12.3356 79.0212 10.7937 79.1655 9.63304C79.2617 8.70454 78.9891 6.99676 78.6203 6.21748C78.1232 5.1895 77.129 4.01229 76.2952 3.44855C74.5634 2.27135 74.5153 2.27135 67.8287 2.18844C64.5254 2.15528 61.7513 2.18844 61.6872 2.25477ZM74.0663 7.36153C75.3652 8.63822 74.82 10.7937 73.1042 11.2745C72.7675 11.374 71.1159 11.4237 69.2397 11.4071L65.9846 11.3574L65.9365 9.06931L65.8884 6.78121L69.7368 6.83095L73.5853 6.8807L74.0663 7.36153ZM73.6013 16.2155C75.0765 16.9782 75.1567 19.3657 73.7136 20.1782C73.2646 20.4435 72.7354 20.4766 69.5925 20.4766H65.9846L65.9365 18.4206C65.9205 17.2766 65.9365 16.2486 65.9686 16.1326C66.0327 15.9668 66.8184 15.917 69.5444 15.917C72.559 15.917 73.1203 15.9502 73.6013 16.2155Z" fill="black"/>
<path d="M0 13.6787V25.0362H2.16474H4.32949V20.4766V15.917H7.61669H10.9039V13.6787V11.4403H7.61669H4.32949V9.11905V6.7978H9.86161H15.3937V4.55944V2.32109H7.69687H0V13.6787Z" fill="#1E40BA"/>
<path d="M88.3216 7.47758C84.2326 8.09106 81.2982 11.8051 81.2982 16.3481C81.2982 19.1502 82.0679 21.2227 83.7356 22.9471C86.7181 25.9979 91.24 26.1637 94.6715 23.345L95.4572 22.6984L96.275 23.8756C96.9966 24.9036 97.1409 25.0362 97.606 25.0362H98.1351L98.103 16.5305L98.0549 8.04132L97.5097 8.07448C97.157 8.09106 96.8844 8.24028 96.724 8.48899C96.5797 8.70453 96.243 9.11904 95.9543 9.43407L95.4572 9.9978L94.5914 9.318C93.4849 8.45582 92.3464 7.87551 91.1598 7.5439C90.1336 7.27862 89.7167 7.26204 88.3216 7.47758ZM91.6249 12.3356C93.1322 13.2476 93.9018 14.8227 93.7736 16.7129C93.6773 18.0559 93.2765 18.9181 92.3464 19.83C91.1117 21.0072 89.9572 21.289 88.3376 20.7916C85.8843 20.0289 84.7458 16.6963 86.0286 13.9771C86.7662 12.4517 88.033 11.7222 89.8289 11.8216C90.6146 11.8714 91.0797 12.004 91.6249 12.3356Z" fill="black"/>
<path d="M122.38 7.49415C119.237 7.9584 116.543 10.5781 115.694 14.0102C115.389 15.2869 115.389 17.7243 115.71 18.9844C116.287 21.3222 117.778 23.3284 119.638 24.3067C122.877 25.9813 126.068 25.6331 128.874 23.2787L129.532 22.715L129.949 23.2621C130.189 23.544 130.43 23.8756 130.494 23.9585C130.574 24.058 130.767 24.3398 130.927 24.5885C131.151 24.9533 131.312 25.0362 131.713 25.003L132.21 24.9533L132.258 16.5305C132.29 9.86515 132.258 8.12421 132.098 8.10763C131.472 8.04131 131.071 8.20711 130.703 8.67136C130.478 8.95323 130.141 9.36774 129.949 9.59986L129.612 9.99779L128.746 9.318C127.592 8.42266 125.972 7.65996 124.818 7.46099C123.759 7.27861 123.775 7.27861 122.38 7.49415ZM125.331 12.0869C128.105 13.3802 128.842 17.2103 126.79 19.5315C125.812 20.6092 125.058 20.974 123.711 20.9574C122.893 20.9574 122.412 20.858 121.931 20.5927C120.6 19.8797 119.622 18.1719 119.622 16.5636C119.622 14.9719 120.376 13.1315 121.29 12.5014C122.428 11.7387 124.192 11.5563 125.331 12.0869Z" fill="black"/>
<path d="M22.4974 7.80922C21.407 7.94186 20.3807 8.35637 19.1781 9.15223C18.4405 9.64964 18.3924 9.66622 18.1839 9.38436C17.5425 8.47244 16.9492 7.94186 16.6285 7.99161L16.2757 8.04135L16.1955 16.2652C16.1474 20.7917 16.1314 24.6052 16.1635 24.7544C16.2116 25.0031 16.4842 25.0362 18.1999 25.0362H20.1883L20.2364 19.7637C20.2845 13.8445 20.3166 13.7118 21.5352 12.7004C22.0644 12.2528 22.3049 12.1864 23.2991 12.1367C24.6942 12.0704 25.3356 12.3688 26.0572 13.4134L26.5382 14.1263L26.6184 19.5316L26.6986 24.9533L28.7511 25.0031L30.7875 25.0528V19.6974C30.7875 16.6963 30.7074 14.0269 30.6111 13.6124C29.7773 9.83203 26.2817 7.32839 22.4974 7.80922Z" fill="#1E40BA"/>
<path d="M135.128 8.05792C135.064 8.12424 135.016 13.4963 135.016 20.0124V31.8342H137.1H139.169L139.217 23.2456C139.265 15.0217 139.281 14.6569 139.586 14.1098C140.404 12.6838 141.606 12.2362 144.477 12.2859L146 12.3191V10.1968V8.09108H143.803C142.601 8.09108 141.302 8.14082 140.917 8.20714C140.195 8.33979 138.64 9.0859 137.854 9.6828C137.437 9.99782 137.389 10.0144 137.245 9.74912C136.78 8.88694 136.01 8.04134 135.641 7.9916C135.417 7.95844 135.192 7.9916 135.128 8.05792Z" fill="black"/>
<path d="M100.54 10.1968V12.2693H103.33H106.105L107.323 10.1968L108.542 8.12422H104.549H100.54V10.1968Z" fill="#1E40BA"/>
<path d="M122.38 28.286C121.787 28.5347 121.226 29.3969 121.226 30.0601C121.226 30.9223 122.124 31.8342 122.99 31.8342C123.455 31.8342 124.272 31.3699 124.272 31.1047C124.272 30.6902 123.904 30.5078 123.567 30.7731C123.134 31.0881 122.733 31.0715 122.348 30.6736C121.915 30.2259 121.947 29.7451 122.412 29.2642C122.813 28.8497 123.294 28.8497 123.647 29.2808C123.791 29.4632 123.888 29.4632 124.048 29.3306C124.785 28.7005 123.406 27.8383 122.38 28.286Z" fill="#1E40BA"/>
<path d="M125.908 28.2197C124.529 28.601 124.336 30.9388 125.635 31.5855C126.966 32.2321 128.121 31.4363 128.121 29.8777C128.121 28.6839 127.078 27.9046 125.908 28.2197ZM127.127 29.2145C127.399 29.4964 127.367 30.342 127.046 30.7067C126.726 31.0715 126.373 31.0881 125.908 30.7399C125.507 30.458 125.411 29.5627 125.748 29.2145C126.004 28.9492 126.87 28.9492 127.127 29.2145Z" fill="#1E40BA"/>
<path d="M129.404 28.3523C129.275 28.4352 129.035 28.4684 128.874 28.4186C128.618 28.3357 128.602 28.4518 128.634 30.0435C128.682 31.7347 128.682 31.7513 129.083 31.7513C129.516 31.7513 129.5 31.7844 129.548 30.0932C129.564 29.43 129.628 29.1482 129.821 29.0653C130.334 28.8663 130.478 29.2808 130.51 31.0549C130.526 31.7844 130.558 31.8508 130.895 31.801C131.216 31.7513 131.248 31.6518 131.296 30.458C131.328 29.4798 131.408 29.1482 131.584 29.0653C131.985 28.916 132.114 29.1979 132.162 30.5078C132.21 31.7015 132.226 31.7513 132.611 31.7513C132.995 31.7513 133.012 31.685 133.06 30.7565C133.14 29.3471 132.883 28.6176 132.274 28.3357C131.889 28.1865 131.665 28.1699 131.28 28.3191C130.975 28.4352 130.702 28.4518 130.51 28.3523C130.157 28.1368 129.708 28.1533 129.404 28.3523Z" fill="#1E40BA"/>
<path d="M119.847 31.2539C119.718 31.6021 119.879 32 120.151 32C120.488 32 120.761 31.5855 120.648 31.2705C120.52 30.9389 119.959 30.9223 119.847 31.2539Z" fill="#1E40BA"/>
</svg>
