<svg width="146" height="32" viewBox="0 0 146 32" fill="none" xmlns="http://www.w3.org/2000/svg">
<path d="M112.727 2.30466C111.011 3.58135 109.424 4.74198 109.215 4.90778L108.814 5.20623L109.985 5.571C110.626 5.76996 111.188 5.96893 111.236 6.01867C111.268 6.06841 111.043 6.54924 110.707 7.07981C109.007 9.81558 105.704 15.5027 104.309 18.0726C103.443 19.6643 102.577 21.256 102.368 21.5877C102.16 21.9358 101.984 22.2509 101.984 22.3006C101.984 22.3504 101.663 22.9472 101.262 23.6105C100.861 24.2903 100.54 24.8872 100.54 24.9369C100.54 24.9866 103.603 25.0364 107.355 25.0364H114.186L114.138 22.9141L114.09 20.8084L110.691 20.7586C108.814 20.7421 107.275 20.6757 107.275 20.626C107.275 20.5099 108.462 18.3379 112.567 10.943C113.304 9.61661 114.074 8.22386 114.298 7.82593C114.571 7.32852 114.78 7.12955 114.956 7.1793C116.175 7.54406 116.736 7.67671 116.784 7.61039C116.832 7.56064 116.335 2.05595 116.094 0.0331463C116.078 -0.132658 115.485 0.281852 112.727 2.30466Z" fill="#1E40BA"/>
<path d="M41.6914 2.37105C39.1097 3.11717 37.3619 4.29437 35.4377 6.63221C34.8764 7.31201 34.1709 8.70476 33.7219 9.98145C33.4012 10.9265 33.289 11.6229 33.2409 13.1317C33.1286 15.569 33.4172 17.0281 34.4435 19.1172C35.0368 20.3442 35.4377 20.9079 36.4639 21.9691C37.9873 23.5111 39.0777 24.224 41.0179 24.9204C42.2526 25.3681 42.6375 25.4178 44.3372 25.4344C46.6462 25.451 47.5442 25.252 49.4684 24.2737C52.4991 22.7649 54.6638 19.996 55.5618 16.4975C55.8664 15.3369 55.9146 12.4022 55.658 11.225C55.1769 9.08611 54.0545 7.03014 52.483 5.42184C50.3023 3.20007 47.9611 2.1555 44.8984 2.05602C43.327 1.9897 42.8459 2.03944 41.6914 2.37105ZM46.9349 6.86433C49.2439 7.70994 51.0719 10.0478 51.4728 12.6343C52.0501 16.4644 49.5486 20.0955 45.7483 20.9079C44.9626 21.0737 44.4975 21.0737 43.5194 20.9245C41.1302 20.5432 39.254 19.1338 38.2118 16.9618C37.6666 15.8177 37.6024 15.5525 37.5543 14.0602C37.4902 12.6675 37.5383 12.2695 37.8429 11.3908C38.2919 10.1141 38.7409 9.40114 39.6068 8.50579C40.3605 7.7431 41.8036 6.88092 42.7497 6.63221C43.5996 6.41666 46.101 6.54931 46.9349 6.86433Z" fill="#1E40BA"/>
<path d="M61.6872 2.25492C61.6231 2.32124 61.575 7.47774 61.575 13.712V25.0364H67.5561C74.0022 25.0364 74.4993 24.9866 75.8943 24.141C76.8404 23.5607 78.1072 22.1348 78.5562 21.1566C79.6466 18.7358 79.2777 15.9835 77.6261 14.2757L76.9687 13.5959L77.5941 13.0156C78.3156 12.3358 79.0212 10.7938 79.1655 9.63319C79.2617 8.70469 78.9891 6.99691 78.6203 6.21763C78.1232 5.18965 77.129 4.01244 76.2952 3.4487C74.5634 2.2715 74.5153 2.2715 67.8287 2.18859C64.5254 2.15543 61.7513 2.18859 61.6872 2.25492ZM74.0663 7.36168C75.3652 8.63837 74.82 10.7938 73.1042 11.2747C72.7675 11.3741 71.1159 11.4239 69.2397 11.4073L65.9846 11.3576L65.9365 9.06946L65.8884 6.78136L69.7368 6.8311L73.5853 6.88085L74.0663 7.36168ZM73.6013 16.2156C75.0765 16.9783 75.1567 19.3659 73.7136 20.1783C73.2646 20.4436 72.7354 20.4768 69.5925 20.4768H65.9846L65.9365 18.4208C65.9205 17.2768 65.9365 16.2488 65.9686 16.1327C66.0327 15.9669 66.8184 15.9172 69.5444 15.9172C72.559 15.9172 73.1203 15.9503 73.6013 16.2156Z" fill="white"/>
<path d="M0 13.6788V25.0364H2.16474H4.32949V20.4768V15.9172H7.61669H10.9039V13.6788V11.4405H7.61669H4.32949V9.1192V6.79795H9.86161H15.3937V4.5596V2.32124H7.69687H0V13.6788Z" fill="#1E40BA"/>
<path d="M88.3216 7.4777C84.2326 8.09118 81.2982 11.8052 81.2982 16.3482C81.2982 19.1503 82.0679 21.2228 83.7356 22.9472C86.7181 25.998 91.24 26.1638 94.6715 23.3451L95.4572 22.6985L96.275 23.8757C96.9966 24.9037 97.1409 25.0363 97.606 25.0363H98.1351L98.103 16.5306L98.0549 8.04144L97.5097 8.0746C97.157 8.09118 96.8844 8.2404 96.724 8.4891C96.5797 8.70465 96.243 9.11916 95.9543 9.43419L95.4572 9.99792L94.5914 9.31812C93.4849 8.45594 92.3464 7.87563 91.1598 7.54402C90.1336 7.27874 89.7167 7.26216 88.3216 7.4777ZM91.6249 12.3358C93.1322 13.2477 93.9018 14.8228 93.7736 16.713C93.6773 18.056 93.2765 18.9182 92.3464 19.8301C91.1117 21.0073 89.9572 21.2892 88.3376 20.7918C85.8843 20.0291 84.7458 16.6964 86.0286 13.9772C86.7662 12.4518 88.033 11.7223 89.8289 11.8218C90.6146 11.8715 91.0797 12.0041 91.6249 12.3358Z" fill="white"/>
<path d="M122.38 7.49418C119.237 7.95843 116.543 10.5781 115.694 14.0103C115.389 15.287 115.389 17.7243 115.71 18.9844C116.287 21.3222 117.778 23.3285 119.638 24.3067C122.877 25.9813 126.068 25.6331 128.874 23.2787L129.532 22.715L129.949 23.2621C130.189 23.544 130.43 23.8756 130.494 23.9585C130.574 24.058 130.767 24.3399 130.927 24.5886C131.151 24.9533 131.312 25.0362 131.713 25.0031L132.21 24.9533L132.258 16.5305C132.29 9.86518 132.258 8.12424 132.098 8.10766C131.472 8.04134 131.071 8.20714 130.702 8.67139C130.478 8.95326 130.141 9.36777 129.949 9.59989L129.612 9.99782L128.746 9.31803C127.592 8.42269 125.972 7.65999 124.818 7.46102C123.759 7.27864 123.775 7.27864 122.38 7.49418ZM125.331 12.087C128.105 13.3802 128.842 17.2103 126.79 19.5315C125.812 20.6093 125.058 20.974 123.711 20.9575C122.893 20.9575 122.412 20.858 121.931 20.5927C120.6 19.8797 119.622 18.172 119.622 16.5637C119.622 14.9719 120.376 13.1315 121.29 12.5015C122.428 11.7388 124.192 11.5564 125.331 12.087Z" fill="white"/>
<path d="M22.4974 7.80913C21.407 7.94177 20.3807 8.35628 19.1781 9.15214C18.4405 9.64955 18.3924 9.66613 18.1839 9.38427C17.5425 8.47234 16.9492 7.94177 16.6285 7.99151L16.2757 8.04125L16.1955 16.2651C16.1474 20.7916 16.1314 24.6051 16.1635 24.7543C16.2116 25.003 16.4842 25.0362 18.1999 25.0362H20.1883L20.2364 19.7636C20.2845 13.8444 20.3166 13.7117 21.5352 12.7003C22.0644 12.2527 22.3049 12.1864 23.2991 12.1366C24.6942 12.0703 25.3356 12.3687 26.0572 13.4133L26.5382 14.1263L26.6184 19.5315L26.6986 24.9533L28.7511 25.003L30.7875 25.0527V19.6973C30.7875 16.6962 30.7074 14.0268 30.6111 13.6123C29.7773 9.83194 26.2817 7.3283 22.4974 7.80913Z" fill="#1E40BA"/>
<path d="M135.128 8.05771C135.064 8.12403 135.016 13.4961 135.016 20.0122V31.834H137.1H139.169L139.217 23.2453C139.265 15.0215 139.281 14.6567 139.586 14.1095C140.404 12.6836 141.606 12.236 144.477 12.2857L146 12.3189V10.1966V8.09087H143.803C142.601 8.09087 141.302 8.14061 140.917 8.20693C140.195 8.33957 138.64 9.08569 137.854 9.68258C137.437 9.99761 137.389 10.0142 137.245 9.74891C136.78 8.88672 136.01 8.04112 135.641 7.99138C135.417 7.95822 135.192 7.99138 135.128 8.05771Z" fill="white"/>
<path d="M100.54 10.1967V12.2693H103.33H106.105L107.323 10.1967L108.542 8.12419H104.549H100.54V10.1967Z" fill="#1E40BA"/>
<path d="M122.38 28.2858C121.787 28.5345 121.226 29.3967 121.226 30.0599C121.226 30.9221 122.124 31.834 122.99 31.834C123.455 31.834 124.272 31.3697 124.272 31.1044C124.272 30.6899 123.904 30.5076 123.567 30.7728C123.134 31.0879 122.733 31.0713 122.348 30.6734C121.915 30.2257 121.947 29.7449 122.412 29.264C122.813 28.8495 123.294 28.8495 123.647 29.2806C123.791 29.463 123.888 29.463 124.048 29.3303C124.786 28.7003 123.406 27.8381 122.38 28.2858Z" fill="#1E40BA"/>
<path d="M125.908 28.2195C124.529 28.6008 124.336 30.9387 125.635 31.5853C126.966 32.2319 128.121 31.4361 128.121 29.8775C128.121 28.6837 127.078 27.9044 125.908 28.2195ZM127.127 29.2143C127.399 29.4962 127.367 30.3418 127.046 30.7065C126.726 31.0713 126.373 31.0879 125.908 30.7397C125.507 30.4578 125.411 29.5625 125.748 29.2143C126.004 28.949 126.87 28.949 127.127 29.2143Z" fill="#1E40BA"/>
<path d="M129.404 28.3525C129.275 28.4354 129.035 28.4686 128.874 28.4188C128.618 28.3359 128.602 28.452 128.634 30.0437C128.682 31.7349 128.682 31.7515 129.083 31.7515C129.516 31.7515 129.5 31.7847 129.548 30.0935C129.564 29.4302 129.628 29.1484 129.821 29.0655C130.334 28.8665 130.478 29.281 130.51 31.0551C130.526 31.7847 130.558 31.851 130.895 31.8012C131.216 31.7515 131.248 31.652 131.296 30.4582C131.328 29.48 131.408 29.1484 131.584 29.0655C131.985 28.9162 132.114 29.1981 132.162 30.508C132.21 31.7018 132.226 31.7515 132.611 31.7515C132.995 31.7515 133.012 31.6852 133.06 30.7567C133.14 29.3473 132.883 28.6178 132.274 28.3359C131.889 28.1867 131.665 28.1701 131.28 28.3194C130.975 28.4354 130.702 28.452 130.51 28.3525C130.157 28.137 129.708 28.1536 129.404 28.3525Z" fill="#1E40BA"/>
<path d="M119.847 31.2539C119.718 31.6021 119.879 32 120.151 32C120.488 32 120.761 31.5855 120.648 31.2705C120.52 30.9389 119.959 30.9223 119.847 31.2539Z" fill="#1E40BA"/>
</svg>
