<svg width="250" height="250" viewBox="0 0 250 250" fill="none" xmlns="http://www.w3.org/2000/svg">
<rect width="250" height="250" rx="125" fill="#C6C6CC"/>
<path d="M189.167 193.5V175.163C189.167 165.44 185.538 156.114 179.078 149.239C172.619 142.363 163.857 138.5 154.722 138.5H94.4444C85.3092 138.5 76.5481 142.363 70.0885 149.239C63.629 156.114 60 165.44 60 175.163V193.5" stroke="black" stroke-width="4" stroke-linecap="round" stroke-linejoin="round"/>
<path d="M155.174 90.375C155.174 97.1737 153.18 103.82 149.445 109.473C145.71 115.126 140.401 119.532 134.19 122.133C127.979 124.735 121.145 125.416 114.551 124.089C107.957 122.763 101.901 119.489 97.147 114.682C92.3932 109.874 89.1559 103.749 87.8443 97.0812C86.5328 90.4131 87.2059 83.5015 89.7786 77.2203C92.3513 70.939 96.7081 65.5704 102.298 61.7932C107.888 58.0161 114.46 56 121.182 56C130.197 56 138.843 59.6216 145.218 66.0682C151.592 72.5148 155.174 81.2582 155.174 90.375Z" stroke="black" stroke-width="4" stroke-linecap="round" stroke-linejoin="round"/>
</svg>
